<svg xmlns="http://www.w3.org/2000/svg" width="93" height="54" viewBox="0 0 93 54"><line x1="15.0" y1="31.0" x2="20.4" y2="36.4" stroke="#FF4655" stroke-width="3" stroke-linecap="square"></line><line x1="15.0" y1="23.0" x2="20.4" y2="17.6" stroke="#FF4655" stroke-width="3" stroke-linecap="square"></line><line x1="7.0" y1="31.0" x2="1.6" y2="36.4" stroke="#FF4655" stroke-width="3" stroke-linecap="square"></line><line x1="7.0" y1="23.0" x2="1.6" y2="17.6" stroke="#FF4655" stroke-width="3" stroke-linecap="square"></line><rect x="8.7" y="24.7" width="4.7" height="4.7" fill="#FF4655" transform="rotate(45 11 27)"></rect><polyline points="48.2,17.0 37.0,17.0 37.0,37.0" fill="none" stroke="#FF4655" stroke-width="3.00" stroke-linecap="square" stroke-linejoin="round"></polyline><polyline points="37.0,26.6 45.4,26.6" fill="none" stroke="#FF4655" stroke-width="3.00" stroke-linecap="square" stroke-linejoin="round"></polyline><polyline points="54.4,37.0 61.4,17.0 68.4,37.0" fill="none" stroke="#FF4655" stroke-width="3.00" stroke-linecap="square" stroke-linejoin="round"></polyline><polyline points="57.0,30.6 65.8,30.6" fill="none" stroke="#FF4655" stroke-width="3.00" stroke-linecap="square" stroke-linejoin="round"></polyline><polyline points="78.6,17.0 84.2,17.0 88.2,20.2 88.2,33.8 84.2,37.0 78.6,37.0 74.6,33.8 74.6,20.2 78.6,17.0" fill="none" stroke="#FF4655" stroke-width="3.00" stroke-linecap="square" stroke-linejoin="round"></polyline><polyline points="83.8,31.4 88.6,37.4" fill="none" stroke="#FF4655" stroke-width="3.00" stroke-linecap="square" stroke-linejoin="round"></polyline></svg>