<svg xmlns="http://www.w3.org/2000/svg" width="300" height="54" viewBox="0 0 300 54"><line x1="15.0" y1="31.0" x2="20.4" y2="36.4" stroke="#FF4655" stroke-width="3" stroke-linecap="square"></line><line x1="15.0" y1="23.0" x2="20.4" y2="17.6" stroke="#FF4655" stroke-width="3" stroke-linecap="square"></line><line x1="7.0" y1="31.0" x2="1.6" y2="36.4" stroke="#FF4655" stroke-width="3" stroke-linecap="square"></line><line x1="7.0" y1="23.0" x2="1.6" y2="17.6" stroke="#FF4655" stroke-width="3" stroke-linecap="square"></line><rect x="8.7" y="24.7" width="4.7" height="4.7" fill="#FF4655" transform="rotate(45 11 27)"></rect><polyline points="50.2,19.6 47.6,17.0 40.0,17.0 37.0,19.8 37.0,34.2 40.0,37.0 47.6,37.0 50.2,34.4 50.2,27.0 45.0,27.0" fill="none" stroke="#FF4655" stroke-width="3.00" stroke-linecap="square" stroke-linejoin="round"></polyline><polyline points="67.6,17.0 56.4,17.0 56.4,37.0 67.6,37.0" fill="none" stroke="#FF4655" stroke-width="3.00" stroke-linecap="square" stroke-linejoin="round"></polyline><polyline points="56.4,26.6 65.2,26.6" fill="none" stroke="#FF4655" stroke-width="3.00" stroke-linecap="square" stroke-linejoin="round"></polyline><polyline points="73.8,17.0 85.8,17.0" fill="none" stroke="#FF4655" stroke-width="3.00" stroke-linecap="square" stroke-linejoin="round"></polyline><polyline points="79.8,17.0 79.8,37.0" fill="none" stroke="#FF4655" stroke-width="3.00" stroke-linecap="square" stroke-linejoin="round"></polyline><polyline points="92.0,17.0 104.0,17.0" fill="none" stroke="#FF4655" stroke-width="3.00" stroke-linecap="square" stroke-linejoin="round"></polyline><polyline points="98.0,17.0 98.0,37.0" fill="none" stroke="#FF4655" stroke-width="3.00" stroke-linecap="square" stroke-linejoin="round"></polyline><polyline points="111.6,17.0 111.6,37.0" fill="none" stroke="#FF4655" stroke-width="3.00" stroke-linecap="square" stroke-linejoin="round"></polyline><polyline points="119.2,37.0 119.2,17.0 132.0,37.0 132.0,17.0" fill="none" stroke="#FF4655" stroke-width="3.00" stroke-linecap="square" stroke-linejoin="round"></polyline><polyline points="151.4,19.6 148.8,17.0 141.2,17.0 138.2,19.8 138.2,34.2 141.2,37.0 148.8,37.0 151.4,34.4 151.4,27.0 146.2,27.0" fill="none" stroke="#FF4655" stroke-width="3.00" stroke-linecap="square" stroke-linejoin="round"></polyline><polyline points="184.2,19.4 181.8,17.0 175.4,17.0 173.0,19.2 173.0,24.6 175.2,26.6 181.6,27.4 183.8,29.4 183.8,34.8 181.4,37.0 175.0,37.0 172.6,34.6" fill="none" stroke="#FF4655" stroke-width="3.00" stroke-linecap="square" stroke-linejoin="round"></polyline><polyline points="190.4,17.0 202.4,17.0" fill="none" stroke="#FF4655" stroke-width="3.00" stroke-linecap="square" stroke-linejoin="round"></polyline><polyline points="196.4,17.0 196.4,37.0" fill="none" stroke="#FF4655" stroke-width="3.00" stroke-linecap="square" stroke-linejoin="round"></polyline><polyline points="208.6,37.0 215.6,17.0 222.6,37.0" fill="none" stroke="#FF4655" stroke-width="3.00" stroke-linecap="square" stroke-linejoin="round"></polyline><polyline points="211.2,30.6 220.0,30.6" fill="none" stroke="#FF4655" stroke-width="3.00" stroke-linecap="square" stroke-linejoin="round"></polyline><polyline points="228.8,37.0 228.8,17.0 237.6,17.0 240.4,19.4 240.4,25.0 237.6,27.4 228.8,27.4" fill="none" stroke="#FF4655" stroke-width="3.00" stroke-linecap="square" stroke-linejoin="round"></polyline><polyline points="234.4,27.4 240.8,37.0" fill="none" stroke="#FF4655" stroke-width="3.00" stroke-linecap="square" stroke-linejoin="round"></polyline><polyline points="247.0,17.0 259.0,17.0" fill="none" stroke="#FF4655" stroke-width="3.00" stroke-linecap="square" stroke-linejoin="round"></polyline><polyline points="253.0,17.0 253.0,37.0" fill="none" stroke="#FF4655" stroke-width="3.00" stroke-linecap="square" stroke-linejoin="round"></polyline><polyline points="276.4,17.0 265.2,17.0 265.2,37.0 276.4,37.0" fill="none" stroke="#FF4655" stroke-width="3.00" stroke-linecap="square" stroke-linejoin="round"></polyline><polyline points="265.2,26.6 274.0,26.6" fill="none" stroke="#FF4655" stroke-width="3.00" stroke-linecap="square" stroke-linejoin="round"></polyline><polyline points="282.6,17.0 291.0,17.0 295.4,20.6 295.4,33.4 291.0,37.0 282.6,37.0 282.6,17.0" fill="none" stroke="#FF4655" stroke-width="3.00" stroke-linecap="square" stroke-linejoin="round"></polyline></svg>