<svg xmlns="http://www.w3.org/2000/svg" width="369" height="54" viewBox="0 0 369 54"><line x1="15.0" y1="31.0" x2="20.4" y2="36.4" stroke="#FF4655" stroke-width="3" stroke-linecap="square"></line><line x1="15.0" y1="23.0" x2="20.4" y2="17.6" stroke="#FF4655" stroke-width="3" stroke-linecap="square"></line><line x1="7.0" y1="31.0" x2="1.6" y2="36.4" stroke="#FF4655" stroke-width="3" stroke-linecap="square"></line><line x1="7.0" y1="23.0" x2="1.6" y2="17.6" stroke="#FF4655" stroke-width="3" stroke-linecap="square"></line><rect x="8.7" y="24.7" width="4.7" height="4.7" fill="#FF4655" transform="rotate(45 11 27)"></rect><polyline points="38.4,17.0 38.4,37.0" fill="none" stroke="#FF4655" stroke-width="3.00" stroke-linecap="square" stroke-linejoin="round"></polyline><polyline points="46.0,37.0 46.0,17.0 58.8,37.0 58.8,17.0" fill="none" stroke="#FF4655" stroke-width="3.00" stroke-linecap="square" stroke-linejoin="round"></polyline><polyline points="65.0,27.0 73.0,27.0" fill="none" stroke="#FF4655" stroke-width="3.00" stroke-linecap="square" stroke-linejoin="round"></polyline><polyline points="92.4,19.6 89.8,17.0 82.2,17.0 79.2,19.8 79.2,34.2 82.2,37.0 89.8,37.0 92.4,34.4 92.4,27.0 87.2,27.0" fill="none" stroke="#FF4655" stroke-width="3.00" stroke-linecap="square" stroke-linejoin="round"></polyline><polyline points="98.6,37.0 105.6,17.0 112.6,37.0" fill="none" stroke="#FF4655" stroke-width="3.00" stroke-linecap="square" stroke-linejoin="round"></polyline><polyline points="101.2,30.6 110.0,30.6" fill="none" stroke="#FF4655" stroke-width="3.00" stroke-linecap="square" stroke-linejoin="round"></polyline><polyline points="118.8,37.0 118.8,17.0 127.2,28.2 135.6,17.0 135.6,37.0" fill="none" stroke="#FF4655" stroke-width="3.00" stroke-linecap="square" stroke-linejoin="round"></polyline><polyline points="153.0,17.0 141.8,17.0 141.8,37.0 153.0,37.0" fill="none" stroke="#FF4655" stroke-width="3.00" stroke-linecap="square" stroke-linejoin="round"></polyline><polyline points="141.8,26.6 150.6,26.6" fill="none" stroke="#FF4655" stroke-width="3.00" stroke-linecap="square" stroke-linejoin="round"></polyline><polyline points="174.2,37.0 174.2,17.0 182.6,28.2 191.0,17.0 191.0,37.0" fill="none" stroke="#FF4655" stroke-width="3.00" stroke-linecap="square" stroke-linejoin="round"></polyline><polyline points="197.2,37.0 204.2,17.0 211.2,37.0" fill="none" stroke="#FF4655" stroke-width="3.00" stroke-linecap="square" stroke-linejoin="round"></polyline><polyline points="199.8,30.6 208.6,30.6" fill="none" stroke="#FF4655" stroke-width="3.00" stroke-linecap="square" stroke-linejoin="round"></polyline><polyline points="217.4,37.0 217.4,17.0 230.2,37.0 230.2,17.0" fill="none" stroke="#FF4655" stroke-width="3.00" stroke-linecap="square" stroke-linejoin="round"></polyline><polyline points="236.4,37.0 243.4,17.0 250.4,37.0" fill="none" stroke="#FF4655" stroke-width="3.00" stroke-linecap="square" stroke-linejoin="round"></polyline><polyline points="239.0,30.6 247.8,30.6" fill="none" stroke="#FF4655" stroke-width="3.00" stroke-linecap="square" stroke-linejoin="round"></polyline><polyline points="269.8,19.6 267.2,17.0 259.6,17.0 256.6,19.8 256.6,34.2 259.6,37.0 267.2,37.0 269.8,34.4 269.8,27.0 264.6,27.0" fill="none" stroke="#FF4655" stroke-width="3.00" stroke-linecap="square" stroke-linejoin="round"></polyline><polyline points="287.2,17.0 276.0,17.0 276.0,37.0 287.2,37.0" fill="none" stroke="#FF4655" stroke-width="3.00" stroke-linecap="square" stroke-linejoin="round"></polyline><polyline points="276.0,26.6 284.8,26.6" fill="none" stroke="#FF4655" stroke-width="3.00" stroke-linecap="square" stroke-linejoin="round"></polyline><polyline points="293.4,37.0 293.4,17.0 301.8,28.2 310.2,17.0 310.2,37.0" fill="none" stroke="#FF4655" stroke-width="3.00" stroke-linecap="square" stroke-linejoin="round"></polyline><polyline points="327.6,17.0 316.4,17.0 316.4,37.0 327.6,37.0" fill="none" stroke="#FF4655" stroke-width="3.00" stroke-linecap="square" stroke-linejoin="round"></polyline><polyline points="316.4,26.6 325.2,26.6" fill="none" stroke="#FF4655" stroke-width="3.00" stroke-linecap="square" stroke-linejoin="round"></polyline><polyline points="333.8,37.0 333.8,17.0 346.6,37.0 346.6,17.0" fill="none" stroke="#FF4655" stroke-width="3.00" stroke-linecap="square" stroke-linejoin="round"></polyline><polyline points="352.8,17.0 364.8,17.0" fill="none" stroke="#FF4655" stroke-width="3.00" stroke-linecap="square" stroke-linejoin="round"></polyline><polyline points="358.8,17.0 358.8,37.0" fill="none" stroke="#FF4655" stroke-width="3.00" stroke-linecap="square" stroke-linejoin="round"></polyline></svg>