<svg xmlns="http://www.w3.org/2000/svg" width="344" height="54" viewBox="0 0 344 54"><line x1="15.0" y1="31.0" x2="20.4" y2="36.4" stroke="#FF4655" stroke-width="3" stroke-linecap="square"></line><line x1="15.0" y1="23.0" x2="20.4" y2="17.6" stroke="#FF4655" stroke-width="3" stroke-linecap="square"></line><line x1="7.0" y1="31.0" x2="1.6" y2="36.4" stroke="#FF4655" stroke-width="3" stroke-linecap="square"></line><line x1="7.0" y1="23.0" x2="1.6" y2="17.6" stroke="#FF4655" stroke-width="3" stroke-linecap="square"></line><rect x="8.7" y="24.7" width="4.7" height="4.7" fill="#FF4655" transform="rotate(45 11 27)"></rect><polyline points="37.0,17.0 37.0,37.0" fill="none" stroke="#FF4655" stroke-width="3.00" stroke-linecap="square" stroke-linejoin="round"></polyline><polyline points="48.6,17.0 37.4,27.0" fill="none" stroke="#FF4655" stroke-width="3.00" stroke-linecap="square" stroke-linejoin="round"></polyline><polyline points="41.4,24.2 49.0,37.0" fill="none" stroke="#FF4655" stroke-width="3.00" stroke-linecap="square" stroke-linejoin="round"></polyline><polyline points="55.2,37.0 55.2,17.0 68.0,37.0 68.0,17.0" fill="none" stroke="#FF4655" stroke-width="3.00" stroke-linecap="square" stroke-linejoin="round"></polyline><polyline points="78.2,17.0 83.8,17.0 87.8,20.2 87.8,33.8 83.8,37.0 78.2,37.0 74.2,33.8 74.2,20.2 78.2,17.0" fill="none" stroke="#FF4655" stroke-width="3.00" stroke-linecap="square" stroke-linejoin="round"></polyline><polyline points="106.8,19.6 104.2,17.0 97.0,17.0 94.0,19.8 94.0,34.2 97.0,37.0 104.2,37.0 106.8,34.4" fill="none" stroke="#FF4655" stroke-width="3.00" stroke-linecap="square" stroke-linejoin="round"></polyline><polyline points="113.0,17.0 113.0,37.0" fill="none" stroke="#FF4655" stroke-width="3.00" stroke-linecap="square" stroke-linejoin="round"></polyline><polyline points="124.6,17.0 113.4,27.0" fill="none" stroke="#FF4655" stroke-width="3.00" stroke-linecap="square" stroke-linejoin="round"></polyline><polyline points="117.4,24.2 125.0,37.0" fill="none" stroke="#FF4655" stroke-width="3.00" stroke-linecap="square" stroke-linejoin="round"></polyline><polyline points="131.2,17.0 131.2,37.0" fill="none" stroke="#FF4655" stroke-width="3.00" stroke-linecap="square" stroke-linejoin="round"></polyline><polyline points="131.2,17.0 139.6,17.0 142.0,19.0 142.0,24.6 139.6,26.6 131.2,26.6" fill="none" stroke="#FF4655" stroke-width="3.00" stroke-linecap="square" stroke-linejoin="round"></polyline><polyline points="139.6,26.6 142.4,28.6 142.4,35.0 140.0,37.0 131.2,37.0" fill="none" stroke="#FF4655" stroke-width="3.00" stroke-linecap="square" stroke-linejoin="round"></polyline><polyline points="148.6,37.0 155.6,17.0 162.6,37.0" fill="none" stroke="#FF4655" stroke-width="3.00" stroke-linecap="square" stroke-linejoin="round"></polyline><polyline points="151.2,30.6 160.0,30.6" fill="none" stroke="#FF4655" stroke-width="3.00" stroke-linecap="square" stroke-linejoin="round"></polyline><polyline points="181.6,19.6 179.0,17.0 171.8,17.0 168.8,19.8 168.8,34.2 171.8,37.0 179.0,37.0 181.6,34.4" fill="none" stroke="#FF4655" stroke-width="3.00" stroke-linecap="square" stroke-linejoin="round"></polyline><polyline points="187.8,17.0 187.8,37.0" fill="none" stroke="#FF4655" stroke-width="3.00" stroke-linecap="square" stroke-linejoin="round"></polyline><polyline points="199.4,17.0 188.2,27.0" fill="none" stroke="#FF4655" stroke-width="3.00" stroke-linecap="square" stroke-linejoin="round"></polyline><polyline points="192.2,24.2 199.8,37.0" fill="none" stroke="#FF4655" stroke-width="3.00" stroke-linecap="square" stroke-linejoin="round"></polyline><polyline points="221.0,37.0 221.0,17.0 229.8,17.0 232.6,19.4 232.6,25.0 229.8,27.4 221.0,27.4" fill="none" stroke="#FF4655" stroke-width="3.00" stroke-linecap="square" stroke-linejoin="round"></polyline><polyline points="238.8,37.0 238.8,17.0 247.6,17.0 250.4,19.4 250.4,25.0 247.6,27.4 238.8,27.4" fill="none" stroke="#FF4655" stroke-width="3.00" stroke-linecap="square" stroke-linejoin="round"></polyline><polyline points="244.4,27.4 250.8,37.0" fill="none" stroke="#FF4655" stroke-width="3.00" stroke-linecap="square" stroke-linejoin="round"></polyline><polyline points="268.2,17.0 257.0,17.0 257.0,37.0 268.2,37.0" fill="none" stroke="#FF4655" stroke-width="3.00" stroke-linecap="square" stroke-linejoin="round"></polyline><polyline points="257.0,26.6 265.8,26.6" fill="none" stroke="#FF4655" stroke-width="3.00" stroke-linecap="square" stroke-linejoin="round"></polyline><polyline points="286.0,19.4 283.6,17.0 277.2,17.0 274.8,19.2 274.8,24.6 277.0,26.6 283.4,27.4 285.6,29.4 285.6,34.8 283.2,37.0 276.8,37.0 274.4,34.6" fill="none" stroke="#FF4655" stroke-width="3.00" stroke-linecap="square" stroke-linejoin="round"></polyline><polyline points="303.4,17.0 292.2,17.0 292.2,37.0 303.4,37.0" fill="none" stroke="#FF4655" stroke-width="3.00" stroke-linecap="square" stroke-linejoin="round"></polyline><polyline points="292.2,26.6 301.0,26.6" fill="none" stroke="#FF4655" stroke-width="3.00" stroke-linecap="square" stroke-linejoin="round"></polyline><polyline points="309.6,17.0 321.6,17.0" fill="none" stroke="#FF4655" stroke-width="3.00" stroke-linecap="square" stroke-linejoin="round"></polyline><polyline points="315.6,17.0 315.6,37.0" fill="none" stroke="#FF4655" stroke-width="3.00" stroke-linecap="square" stroke-linejoin="round"></polyline><polyline points="339.4,19.4 337.0,17.0 330.6,17.0 328.2,19.2 328.2,24.6 330.4,26.6 336.8,27.4 339.0,29.4 339.0,34.8 336.6,37.0 330.2,37.0 327.8,34.6" fill="none" stroke="#FF4655" stroke-width="3.00" stroke-linecap="square" stroke-linejoin="round"></polyline></svg>