<svg xmlns="http://www.w3.org/2000/svg" width="1280" height="640" viewBox="0 0 1280 640"><rect width="1280" height="640" fill="#0C0E12"></rect><rect x="24" y="24" width="1232" height="592" fill="none" stroke="#2A2F38" stroke-width="2"></rect><line x1="101" y1="24" x2="101" y2="38" stroke="#333944" stroke-width="2"></line><line x1="101" y1="616" x2="101" y2="602" stroke="#333944" stroke-width="2"></line><line x1="178" y1="24" x2="178" y2="38" stroke="#333944" stroke-width="2"></line><line x1="178" y1="616" x2="178" y2="602" stroke="#333944" stroke-width="2"></line><line x1="255" y1="24" x2="255" y2="38" stroke="#333944" stroke-width="2"></line><line x1="255" y1="616" x2="255" y2="602" stroke="#333944" stroke-width="2"></line><line x1="332" y1="24" x2="332" y2="38" stroke="#333944" stroke-width="2"></line><line x1="332" y1="616" x2="332" y2="602" stroke="#333944" stroke-width="2"></line><line x1="409" y1="24" x2="409" y2="38" stroke="#333944" stroke-width="2"></line><line x1="409" y1="616" x2="409" y2="602" stroke="#333944" stroke-width="2"></line><line x1="486" y1="24" x2="486" y2="38" stroke="#333944" stroke-width="2"></line><line x1="486" y1="616" x2="486" y2="602" stroke="#333944" stroke-width="2"></line><line x1="563" y1="24" x2="563" y2="38" stroke="#333944" stroke-width="2"></line><line x1="563" y1="616" x2="563" y2="602" stroke="#333944" stroke-width="2"></line><line x1="640" y1="24" x2="640" y2="38" stroke="#333944" stroke-width="2"></line><line x1="640" y1="616" x2="640" y2="602" stroke="#333944" stroke-width="2"></line><line x1="717" y1="24" x2="717" y2="38" stroke="#333944" stroke-width="2"></line><line x1="717" y1="616" x2="717" y2="602" stroke="#333944" stroke-width="2"></line><line x1="794" y1="24" x2="794" y2="38" stroke="#333944" stroke-width="2"></line><line x1="794" y1="616" x2="794" y2="602" stroke="#333944" stroke-width="2"></line><line x1="871" y1="24" x2="871" y2="38" stroke="#333944" stroke-width="2"></line><line x1="871" y1="616" x2="871" y2="602" stroke="#333944" stroke-width="2"></line><line x1="948" y1="24" x2="948" y2="38" stroke="#333944" stroke-width="2"></line><line x1="948" y1="616" x2="948" y2="602" stroke="#333944" stroke-width="2"></line><line x1="1025" y1="24" x2="1025" y2="38" stroke="#333944" stroke-width="2"></line><line x1="1025" y1="616" x2="1025" y2="602" stroke="#333944" stroke-width="2"></line><line x1="1102" y1="24" x2="1102" y2="38" stroke="#333944" stroke-width="2"></line><line x1="1102" y1="616" x2="1102" y2="602" stroke="#333944" stroke-width="2"></line><line x1="1179" y1="24" x2="1179" y2="38" stroke="#333944" stroke-width="2"></line><line x1="1179" y1="616" x2="1179" y2="602" stroke="#333944" stroke-width="2"></line><line x1="331.1" y1="328.8" x2="359.2" y2="356.9" stroke="#FF4655" stroke-width="12" stroke-linecap="square"></line><line x1="331.1" y1="287.2" x2="359.2" y2="259.1" stroke="#FF4655" stroke-width="12" stroke-linecap="square"></line><line x1="289.5" y1="328.8" x2="261.4" y2="356.9" stroke="#FF4655" stroke-width="12" stroke-linecap="square"></line><line x1="289.5" y1="287.2" x2="261.4" y2="259.1" stroke="#FF4655" stroke-width="12" stroke-linecap="square"></line><rect x="300.9" y="298.6" width="18.7" height="18.7" fill="#FF4655" transform="rotate(45 310.2799999999999 308)"></rect><polygon points="416.3,372.0 473.5,244.0 495.6,244.0 495.6,332.3 531.1,244.0 555.8,244.0 555.8,372.0 531.1,372.0 531.1,305.6 504.5,372.0 470.9,372.0 470.9,305.1 441.0,372.0" fill="#EDEAE4"></polygon><polygon points="576.3,244.0 645.4,244.0 637.7,269.6 603.2,269.6 603.2,295.2 635.2,295.2 627.5,320.8 603.2,320.8 603.2,346.4 645.4,346.4 645.4,372.0 576.3,372.0" fill="#EDEAE4"></polygon><polygon points="665.9,372.0 665.9,244.0 692.8,244.0 723.5,315.7 723.5,244.0 750.4,244.0 750.4,372.0 723.5,372.0 692.8,300.3 692.8,372.0" fill="#EDEAE4"></polygon><polygon points="770.8,244.0 845.1,244.0 837.4,269.6 820.8,269.6 820.8,372.0 795.2,372.0 795.2,269.6 770.8,269.6" fill="#EDEAE4"></polygon><polygon points="852.8,372.0 883.5,244.0 906.5,244.0 937.2,372.0 910.4,372.0 895.0,300.3 879.6,372.0" fill="#EDEAE4"></polygon><polygon points="957.7,244.0 984.6,244.0 984.6,346.4 1021.7,346.4 1021.7,361.8 1011.5,372.0 957.7,372.0" fill="#EDEAE4"></polygon><line x1="229.36" y1="442.76" x2="313.36" y2="442.76" stroke="#333944" stroke-width="2"></line><line x1="966.64" y1="442.76" x2="1050.6399999999999" y2="442.76" stroke="#333944" stroke-width="2"></line><polyline points="347.4,452.0 355.1,430.0 362.8,452.0" fill="none" stroke="#8A919C" stroke-width="3.08" stroke-linecap="square" stroke-linejoin="round"></polyline><polyline points="350.2,445.0 359.9,445.0" fill="none" stroke="#8A919C" stroke-width="3.08" stroke-linecap="square" stroke-linejoin="round"></polyline><polyline points="385.5,432.6 382.9,430.0 375.8,430.0 373.2,432.4 373.2,438.4 375.6,440.6 382.7,441.4 385.1,443.6 385.1,449.6 382.4,452.0 375.4,452.0 372.8,449.4" fill="none" stroke="#8A919C" stroke-width="3.08" stroke-linecap="square" stroke-linejoin="round"></polyline><polyline points="395.5,430.0 402.3,440.1 409.2,430.0" fill="none" stroke="#8A919C" stroke-width="3.08" stroke-linecap="square" stroke-linejoin="round"></polyline><polyline points="402.3,440.1 402.3,452.0" fill="none" stroke="#8A919C" stroke-width="3.08" stroke-linecap="square" stroke-linejoin="round"></polyline><polyline points="419.2,452.0 419.2,430.0 433.2,452.0 433.2,430.0" fill="none" stroke="#8A919C" stroke-width="3.08" stroke-linecap="square" stroke-linejoin="round"></polyline><polyline points="457.3,432.9 454.5,430.0 446.5,430.0 443.2,433.1 443.2,448.9 446.5,452.0 454.5,452.0 457.3,449.1" fill="none" stroke="#8A919C" stroke-width="3.08" stroke-linecap="square" stroke-linejoin="round"></polyline><polyline points="487.0,452.0 487.0,430.0 496.7,430.0 499.8,432.6 499.8,438.8 496.7,441.4 487.0,441.4" fill="none" stroke="#8A919C" stroke-width="3.08" stroke-linecap="square" stroke-linejoin="round"></polyline><polyline points="509.8,430.0 517.0,452.0 524.3,430.0" fill="none" stroke="#8A919C" stroke-width="3.08" stroke-linecap="square" stroke-linejoin="round"></polyline><polyline points="534.3,452.0 534.3,430.0 544.0,430.0 547.0,432.6 547.0,438.8 544.0,441.4 534.3,441.4" fill="none" stroke="#8A919C" stroke-width="3.08" stroke-linecap="square" stroke-linejoin="round"></polyline><polyline points="590.4,441.4 582.0,451.1 578.9,451.1 577.2,449.4 577.2,446.3 586.8,437.0 586.8,432.6 584.6,430.0 581.1,430.0 578.9,432.2 578.9,435.7 590.8,451.1" fill="none" stroke="#8A919C" stroke-width="3.08" stroke-linecap="square" stroke-linejoin="round"></polyline><polyline points="635.0,432.9 632.1,430.0 624.2,430.0 620.9,433.1 620.9,448.9 624.2,452.0 632.1,452.0 635.0,449.1" fill="none" stroke="#8A919C" stroke-width="3.08" stroke-linecap="square" stroke-linejoin="round"></polyline><polyline points="645.0,430.0 645.0,452.0 656.4,452.0" fill="none" stroke="#8A919C" stroke-width="3.08" stroke-linecap="square" stroke-linejoin="round"></polyline><polyline points="666.4,452.0 674.1,430.0 681.8,452.0" fill="none" stroke="#8A919C" stroke-width="3.08" stroke-linecap="square" stroke-linejoin="round"></polyline><polyline points="669.3,445.0 679.0,445.0" fill="none" stroke="#8A919C" stroke-width="3.08" stroke-linecap="square" stroke-linejoin="round"></polyline><polyline points="704.6,432.6 702.0,430.0 694.9,430.0 692.3,432.4 692.3,438.4 694.7,440.6 701.7,441.4 704.2,443.6 704.2,449.6 701.5,452.0 694.5,452.0 691.8,449.4" fill="none" stroke="#8A919C" stroke-width="3.08" stroke-linecap="square" stroke-linejoin="round"></polyline><polyline points="727.4,432.6 724.7,430.0 717.7,430.0 715.0,432.4 715.0,438.4 717.5,440.6 724.5,441.4 726.9,443.6 726.9,449.6 724.3,452.0 717.2,452.0 714.6,449.4" fill="none" stroke="#8A919C" stroke-width="3.08" stroke-linecap="square" stroke-linejoin="round"></polyline><polyline points="738.9,430.0 738.9,452.0" fill="none" stroke="#8A919C" stroke-width="3.08" stroke-linecap="square" stroke-linejoin="round"></polyline><polyline points="764.5,432.9 761.7,430.0 753.7,430.0 750.4,433.1 750.4,448.9 753.7,452.0 761.7,452.0 764.5,449.1" fill="none" stroke="#8A919C" stroke-width="3.08" stroke-linecap="square" stroke-linejoin="round"></polyline><polyline points="808.3,432.9 805.4,430.0 797.5,430.0 794.2,433.1 794.2,448.9 797.5,452.0 805.4,452.0 808.3,449.1" fill="none" stroke="#8A919C" stroke-width="3.08" stroke-linecap="square" stroke-linejoin="round"></polyline><polyline points="822.7,430.0 828.8,430.0 833.2,433.5 833.2,448.5 828.8,452.0 822.7,452.0 818.3,448.5 818.3,433.5 822.7,430.0" fill="none" stroke="#8A919C" stroke-width="3.08" stroke-linecap="square" stroke-linejoin="round"></polyline><polyline points="843.2,452.0 843.2,430.0 852.5,442.3 861.7,430.0 861.7,452.0" fill="none" stroke="#8A919C" stroke-width="3.08" stroke-linecap="square" stroke-linejoin="round"></polyline><polyline points="871.7,430.0 871.7,452.0" fill="none" stroke="#8A919C" stroke-width="3.08" stroke-linecap="square" stroke-linejoin="round"></polyline><polyline points="871.7,430.0 881.0,430.0 883.6,432.2 883.6,438.4 881.0,440.6 871.7,440.6" fill="none" stroke="#8A919C" stroke-width="3.08" stroke-linecap="square" stroke-linejoin="round"></polyline><polyline points="881.0,440.6 884.0,442.8 884.0,449.8 881.4,452.0 871.7,452.0" fill="none" stroke="#8A919C" stroke-width="3.08" stroke-linecap="square" stroke-linejoin="round"></polyline><polyline points="894.0,452.0 901.7,430.0 909.4,452.0" fill="none" stroke="#8A919C" stroke-width="3.08" stroke-linecap="square" stroke-linejoin="round"></polyline><polyline points="896.9,445.0 906.6,445.0" fill="none" stroke="#8A919C" stroke-width="3.08" stroke-linecap="square" stroke-linejoin="round"></polyline><polyline points="919.4,430.0 932.6,430.0" fill="none" stroke="#8A919C" stroke-width="3.08" stroke-linecap="square" stroke-linejoin="round"></polyline><polyline points="926.0,430.0 926.0,452.0" fill="none" stroke="#8A919C" stroke-width="3.08" stroke-linecap="square" stroke-linejoin="round"></polyline></svg>