<svg xmlns="http://www.w3.org/2000/svg" width="900" height="300" viewBox="0 0 900 300"><defs><pattern id="dots" width="14" height="14" patternUnits="userSpaceOnUse"><circle cx="7" cy="7" r="1.4" fill="#FF4655" fill-opacity="0.10"/></pattern><linearGradient id="fade" x1="0" y1="0" x2="0" y2="1"><stop offset="0" stop-color="#FF4655" stop-opacity="0.28"/><stop offset="1" stop-color="#FF4655" stop-opacity="0.02"/></linearGradient></defs><path d="M13.5,1.5 H898.5 V286.5 L886.5,298.5 H1.5 V13.5 Z" fill="#0C0E12" stroke="#2A2F38" stroke-width="2"/><line x1="75" y1="1.5" x2="75" y2="7.5" stroke="#333944" stroke-width="1.5"/><line x1="75" y1="298.5" x2="75" y2="292.5" stroke="#333944" stroke-width="1.5"/><line x1="150" y1="1.5" x2="150" y2="7.5" stroke="#333944" stroke-width="1.5"/><line x1="150" y1="298.5" x2="150" y2="292.5" stroke="#333944" stroke-width="1.5"/><line x1="225" y1="1.5" x2="225" y2="7.5" stroke="#333944" stroke-width="1.5"/><line x1="225" y1="298.5" x2="225" y2="292.5" stroke="#333944" stroke-width="1.5"/><line x1="300" y1="1.5" x2="300" y2="7.5" stroke="#333944" stroke-width="1.5"/><line x1="300" y1="298.5" x2="300" y2="292.5" stroke="#333944" stroke-width="1.5"/><line x1="375" y1="1.5" x2="375" y2="7.5" stroke="#333944" stroke-width="1.5"/><line x1="375" y1="298.5" x2="375" y2="292.5" stroke="#333944" stroke-width="1.5"/><line x1="450" y1="1.5" x2="450" y2="7.5" stroke="#333944" stroke-width="1.5"/><line x1="450" y1="298.5" x2="450" y2="292.5" stroke="#333944" stroke-width="1.5"/><line x1="525" y1="1.5" x2="525" y2="7.5" stroke="#333944" stroke-width="1.5"/><line x1="525" y1="298.5" x2="525" y2="292.5" stroke="#333944" stroke-width="1.5"/><line x1="600" y1="1.5" x2="600" y2="7.5" stroke="#333944" stroke-width="1.5"/><line x1="600" y1="298.5" x2="600" y2="292.5" stroke="#333944" stroke-width="1.5"/><line x1="675" y1="1.5" x2="675" y2="7.5" stroke="#333944" stroke-width="1.5"/><line x1="675" y1="298.5" x2="675" y2="292.5" stroke="#333944" stroke-width="1.5"/><line x1="750" y1="1.5" x2="750" y2="7.5" stroke="#333944" stroke-width="1.5"/><line x1="750" y1="298.5" x2="750" y2="292.5" stroke="#333944" stroke-width="1.5"/><line x1="825" y1="1.5" x2="825" y2="7.5" stroke="#333944" stroke-width="1.5"/><line x1="825" y1="298.5" x2="825" y2="292.5" stroke="#333944" stroke-width="1.5"/><text x="58" y="31" font-family="ui-monospace, SFMono-Regular, Menlo, Consolas, monospace" font-size="13" letter-spacing="3" fill="#8A919C">PLAYERS — LAST 14 DAYS</text><line x1="58" y1="260.0" x2="874" y2="260.0" stroke="#1D2129" stroke-width="1"/><text x="48" y="264.0" text-anchor="end" font-family="ui-monospace, SFMono-Regular, Menlo, Consolas, monospace" font-size="12" fill="#8A919C">0</text><line x1="58" y1="209.0" x2="874" y2="209.0" stroke="#1D2129" stroke-width="1"/><text x="48" y="213.0" text-anchor="end" font-family="ui-monospace, SFMono-Regular, Menlo, Consolas, monospace" font-size="12" fill="#8A919C">5</text><line x1="58" y1="158.0" x2="874" y2="158.0" stroke="#1D2129" stroke-width="1"/><text x="48" y="162.0" text-anchor="end" font-family="ui-monospace, SFMono-Regular, Menlo, Consolas, monospace" font-size="12" fill="#8A919C">10</text><line x1="58" y1="107.0" x2="874" y2="107.0" stroke="#1D2129" stroke-width="1"/><text x="48" y="111.0" text-anchor="end" font-family="ui-monospace, SFMono-Regular, Menlo, Consolas, monospace" font-size="12" fill="#8A919C">15</text><line x1="58" y1="56.0" x2="874" y2="56.0" stroke="#1D2129" stroke-width="1"/><text x="48" y="60.0" text-anchor="end" font-family="ui-monospace, SFMono-Regular, Menlo, Consolas, monospace" font-size="12" fill="#8A919C">20</text><text x="58.0" y="284" text-anchor="start" font-family="ui-monospace, SFMono-Regular, Menlo, Consolas, monospace" font-size="12" letter-spacing="1" fill="#8A919C">SEP 1</text><text x="262.0" y="284" text-anchor="middle" font-family="ui-monospace, SFMono-Regular, Menlo, Consolas, monospace" font-size="12" letter-spacing="1" fill="#8A919C">SEP 5</text><text x="466.0" y="284" text-anchor="middle" font-family="ui-monospace, SFMono-Regular, Menlo, Consolas, monospace" font-size="12" letter-spacing="1" fill="#8A919C">SEP 8</text><text x="670.0" y="284" text-anchor="middle" font-family="ui-monospace, SFMono-Regular, Menlo, Consolas, monospace" font-size="12" letter-spacing="1" fill="#8A919C">SEP 12</text><text x="874.0" y="284" text-anchor="end" font-family="ui-monospace, SFMono-Regular, Menlo, Consolas, monospace" font-size="12" letter-spacing="1" fill="#8A919C">SEP 15</text><path d="M60.9,253.9C61.9,254.9 64.8,259.3 66.7,260.0C68.7,260.7 70.6,258.6 72.6,258.0C74.5,257.3 76.5,255.6 78.4,255.9C80.3,256.3 82.3,259.3 84.2,260.0C86.2,260.7 88.1,260.7 90.1,260.0C92.0,259.3 93.9,256.6 95.9,255.9C97.8,255.2 99.8,255.2 101.7,255.9C103.7,256.6 105.6,259.3 107.5,260.0C109.5,260.7 111.4,260.0 113.4,260.0C115.3,260.0 117.3,261.0 119.2,260.0C121.1,259.0 123.1,254.9 125.0,253.9C127.0,252.9 128.9,252.9 130.9,253.9C132.8,254.9 134.7,259.3 136.7,260.0C138.6,260.7 140.6,258.0 142.5,258.0C144.5,258.0 146.4,259.7 148.3,260.0C150.3,260.3 152.2,260.7 154.2,260.0C156.1,259.3 158.1,258.0 160.0,255.9C161.9,253.8 163.9,246.6 165.8,247.3C167.8,247.9 169.7,257.9 171.7,260.0C173.6,262.1 175.5,261.0 177.5,260.0C179.4,259.0 181.4,256.6 183.3,253.9C185.3,251.2 187.2,245.2 189.1,243.7C191.1,242.2 193.0,243.7 195.0,244.7C196.9,245.7 198.9,248.3 200.8,249.8C202.7,251.3 204.7,252.2 206.6,253.9C208.6,255.6 210.5,260.3 212.5,260.0C214.4,259.7 216.3,257.8 218.3,252.3C220.2,246.9 222.2,230.5 224.1,227.4C226.1,224.2 228.0,228.0 229.9,233.5C231.9,238.9 233.8,255.6 235.8,260.0C237.7,264.4 239.7,260.9 241.6,260.0C243.5,259.1 245.5,257.3 247.4,254.9C249.4,252.5 251.3,246.2 253.3,245.7C255.2,245.2 257.1,256.9 259.1,251.8C261.0,246.7 263.0,227.4 264.9,215.1C266.9,202.9 268.8,171.3 270.7,178.4C272.7,185.5 274.6,247.9 276.6,257.4C278.5,267.0 280.5,238.8 282.4,235.5C284.3,232.2 286.3,237.6 288.2,237.6C290.2,237.6 292.1,236.9 294.1,235.5C296.0,234.2 297.9,231.1 299.9,229.4C301.8,227.7 303.8,224.0 305.7,225.3C307.7,226.7 309.6,232.1 311.5,237.6C313.5,243.0 315.4,255.9 317.4,258.0C319.3,260.0 321.3,251.6 323.2,249.8C325.1,248.0 327.1,248.9 329.0,247.3C331.0,245.6 332.9,240.5 334.9,239.6C336.8,238.7 338.7,250.8 340.7,241.6C342.6,232.5 344.6,193.4 346.5,184.5C348.5,175.7 350.4,188.3 352.3,188.6C354.3,188.9 356.2,187.1 358.2,186.1C360.1,185.0 362.1,182.7 364.0,182.5C365.9,182.2 367.9,183.5 369.8,184.5C371.8,185.5 373.7,187.9 375.7,188.6C377.6,189.3 379.5,188.6 381.5,188.6C383.4,188.6 385.4,188.6 387.3,188.6C389.3,188.6 391.2,188.6 393.1,188.6C395.1,188.6 397.0,188.6 399.0,188.6C400.9,188.6 402.9,188.6 404.8,188.6C406.7,188.6 408.7,188.6 410.6,188.6C412.6,188.6 414.5,190.0 416.5,188.6C418.4,187.2 420.3,181.8 422.3,180.4C424.2,179.1 426.2,176.7 428.1,180.4C430.1,184.2 432.0,202.8 433.9,202.9C435.9,203.0 437.8,183.3 439.8,180.9C441.7,178.6 443.7,190.7 445.6,188.6C447.5,186.5 449.5,173.6 451.4,168.2C453.4,162.8 455.3,153.0 457.3,156.0C459.2,158.9 461.1,181.0 463.1,186.1C465.0,191.2 467.0,187.5 468.9,186.6C470.9,185.6 472.8,180.8 474.7,180.4C476.7,180.1 478.6,184.5 480.6,184.5C482.5,184.5 484.5,179.8 486.4,180.4C488.3,181.1 490.3,187.2 492.2,188.6C494.2,190.0 496.1,188.6 498.1,188.6C500.0,188.6 501.9,188.9 503.9,188.6C505.8,188.3 507.8,187.2 509.7,186.6C511.7,185.9 513.6,185.0 515.5,184.5C517.5,184.0 519.4,183.5 521.4,183.5C523.3,183.5 525.3,183.7 527.2,184.5C529.1,185.4 531.1,187.9 533.0,188.6C535.0,189.3 536.9,188.6 538.9,188.6C540.8,188.6 542.7,188.9 544.7,188.6C546.6,188.3 548.6,186.6 550.5,186.6C552.5,186.6 554.4,188.3 556.3,188.6C558.3,188.9 560.2,186.2 562.2,188.6C564.1,191.0 566.1,191.8 568.0,202.9C569.9,213.9 571.9,246.1 573.8,254.9C575.8,263.7 577.7,255.4 579.7,255.9C581.6,256.4 583.5,260.3 585.5,258.0C587.4,255.6 589.4,241.3 591.3,241.6C593.3,242.0 595.2,258.2 597.1,260.0C599.1,261.8 601.0,252.7 603.0,252.3C604.9,252.0 606.9,256.7 608.8,258.0C610.7,259.2 612.7,259.7 614.6,260.0C616.6,260.3 618.5,260.0 620.5,260.0C622.4,260.0 624.3,262.4 626.3,260.0C628.2,257.6 630.2,246.7 632.1,245.7C634.1,244.7 636.0,251.5 637.9,253.9C639.9,256.3 641.8,259.7 643.8,260.0C645.7,260.3 647.7,255.9 649.6,255.9C651.5,255.9 653.5,261.0 655.4,260.0C657.4,259.0 659.3,252.2 661.3,249.8C663.2,247.4 665.1,244.0 667.1,245.7C669.0,247.4 671.0,262.0 672.9,260.0C674.9,258.0 676.8,235.2 678.7,233.5C680.7,231.8 682.6,245.4 684.6,249.8C686.5,254.2 688.5,258.6 690.4,260.0C692.3,261.4 694.3,258.0 696.2,258.0C698.2,258.0 700.1,259.7 702.1,260.0C704.0,260.3 705.9,261.0 707.9,260.0C709.8,259.0 711.8,256.9 713.7,253.9C715.7,250.8 717.6,240.6 719.5,241.6C721.5,242.7 723.4,256.9 725.4,260.0C727.3,263.1 729.3,260.0 731.2,260.0C733.1,260.0 735.1,260.0 737.0,260.0C739.0,260.0 740.9,260.0 742.9,260.0C744.8,260.0 746.7,260.7 748.7,260.0C750.6,259.3 752.6,255.9 754.5,255.9C756.5,255.9 758.4,259.3 760.3,260.0C762.3,260.7 764.2,260.0 766.2,260.0C768.1,260.0 770.1,260.0 772.0,260.0C773.9,260.0 775.9,260.0 777.8,260.0C779.8,260.0 781.7,260.0 783.7,260.0C785.6,260.0 787.5,260.0 789.5,260.0C791.4,260.0 793.4,260.3 795.3,260.0C797.3,259.7 799.2,258.0 801.1,258.0C803.1,258.0 805.0,259.7 807.0,260.0C808.9,260.3 810.9,260.0 812.8,260.0C814.7,260.0 816.7,260.0 818.6,260.0C820.6,260.0 822.5,260.0 824.5,260.0C826.4,260.0 828.3,260.0 830.3,260.0C832.2,260.0 834.2,260.0 836.1,260.0C838.1,260.0 840.0,260.0 841.9,260.0C843.9,260.0 845.8,260.0 847.8,260.0C849.7,260.0 851.7,260.0 853.6,260.0C855.5,260.0 857.5,260.0 859.4,260.0C861.4,260.0 863.3,260.3 865.3,260.0C867.2,259.7 870.1,258.3 871.1,258.0L871.1,260.0 L60.9,260.0 Z" fill="url(#fade)"/><path d="M60.9,253.9C61.9,254.9 64.8,259.3 66.7,260.0C68.7,260.7 70.6,258.6 72.6,258.0C74.5,257.3 76.5,255.6 78.4,255.9C80.3,256.3 82.3,259.3 84.2,260.0C86.2,260.7 88.1,260.7 90.1,260.0C92.0,259.3 93.9,256.6 95.9,255.9C97.8,255.2 99.8,255.2 101.7,255.9C103.7,256.6 105.6,259.3 107.5,260.0C109.5,260.7 111.4,260.0 113.4,260.0C115.3,260.0 117.3,261.0 119.2,260.0C121.1,259.0 123.1,254.9 125.0,253.9C127.0,252.9 128.9,252.9 130.9,253.9C132.8,254.9 134.7,259.3 136.7,260.0C138.6,260.7 140.6,258.0 142.5,258.0C144.5,258.0 146.4,259.7 148.3,260.0C150.3,260.3 152.2,260.7 154.2,260.0C156.1,259.3 158.1,258.0 160.0,255.9C161.9,253.8 163.9,246.6 165.8,247.3C167.8,247.9 169.7,257.9 171.7,260.0C173.6,262.1 175.5,261.0 177.5,260.0C179.4,259.0 181.4,256.6 183.3,253.9C185.3,251.2 187.2,245.2 189.1,243.7C191.1,242.2 193.0,243.7 195.0,244.7C196.9,245.7 198.9,248.3 200.8,249.8C202.7,251.3 204.7,252.2 206.6,253.9C208.6,255.6 210.5,260.3 212.5,260.0C214.4,259.7 216.3,257.8 218.3,252.3C220.2,246.9 222.2,230.5 224.1,227.4C226.1,224.2 228.0,228.0 229.9,233.5C231.9,238.9 233.8,255.6 235.8,260.0C237.7,264.4 239.7,260.9 241.6,260.0C243.5,259.1 245.5,257.3 247.4,254.9C249.4,252.5 251.3,246.2 253.3,245.7C255.2,245.2 257.1,256.9 259.1,251.8C261.0,246.7 263.0,227.4 264.9,215.1C266.9,202.9 268.8,171.3 270.7,178.4C272.7,185.5 274.6,247.9 276.6,257.4C278.5,267.0 280.5,238.8 282.4,235.5C284.3,232.2 286.3,237.6 288.2,237.6C290.2,237.6 292.1,236.9 294.1,235.5C296.0,234.2 297.9,231.1 299.9,229.4C301.8,227.7 303.8,224.0 305.7,225.3C307.7,226.7 309.6,232.1 311.5,237.6C313.5,243.0 315.4,255.9 317.4,258.0C319.3,260.0 321.3,251.6 323.2,249.8C325.1,248.0 327.1,248.9 329.0,247.3C331.0,245.6 332.9,240.5 334.9,239.6C336.8,238.7 338.7,250.8 340.7,241.6C342.6,232.5 344.6,193.4 346.5,184.5C348.5,175.7 350.4,188.3 352.3,188.6C354.3,188.9 356.2,187.1 358.2,186.1C360.1,185.0 362.1,182.7 364.0,182.5C365.9,182.2 367.9,183.5 369.8,184.5C371.8,185.5 373.7,187.9 375.7,188.6C377.6,189.3 379.5,188.6 381.5,188.6C383.4,188.6 385.4,188.6 387.3,188.6C389.3,188.6 391.2,188.6 393.1,188.6C395.1,188.6 397.0,188.6 399.0,188.6C400.9,188.6 402.9,188.6 404.8,188.6C406.7,188.6 408.7,188.6 410.6,188.6C412.6,188.6 414.5,190.0 416.5,188.6C418.4,187.2 420.3,181.8 422.3,180.4C424.2,179.1 426.2,176.7 428.1,180.4C430.1,184.2 432.0,202.8 433.9,202.9C435.9,203.0 437.8,183.3 439.8,180.9C441.7,178.6 443.7,190.7 445.6,188.6C447.5,186.5 449.5,173.6 451.4,168.2C453.4,162.8 455.3,153.0 457.3,156.0C459.2,158.9 461.1,181.0 463.1,186.1C465.0,191.2 467.0,187.5 468.9,186.6C470.9,185.6 472.8,180.8 474.7,180.4C476.7,180.1 478.6,184.5 480.6,184.5C482.5,184.5 484.5,179.8 486.4,180.4C488.3,181.1 490.3,187.2 492.2,188.6C494.2,190.0 496.1,188.6 498.1,188.6C500.0,188.6 501.9,188.9 503.9,188.6C505.8,188.3 507.8,187.2 509.7,186.6C511.7,185.9 513.6,185.0 515.5,184.5C517.5,184.0 519.4,183.5 521.4,183.5C523.3,183.5 525.3,183.7 527.2,184.5C529.1,185.4 531.1,187.9 533.0,188.6C535.0,189.3 536.9,188.6 538.9,188.6C540.8,188.6 542.7,188.9 544.7,188.6C546.6,188.3 548.6,186.6 550.5,186.6C552.5,186.6 554.4,188.3 556.3,188.6C558.3,188.9 560.2,186.2 562.2,188.6C564.1,191.0 566.1,191.8 568.0,202.9C569.9,213.9 571.9,246.1 573.8,254.9C575.8,263.7 577.7,255.4 579.7,255.9C581.6,256.4 583.5,260.3 585.5,258.0C587.4,255.6 589.4,241.3 591.3,241.6C593.3,242.0 595.2,258.2 597.1,260.0C599.1,261.8 601.0,252.7 603.0,252.3C604.9,252.0 606.9,256.7 608.8,258.0C610.7,259.2 612.7,259.7 614.6,260.0C616.6,260.3 618.5,260.0 620.5,260.0C622.4,260.0 624.3,262.4 626.3,260.0C628.2,257.6 630.2,246.7 632.1,245.7C634.1,244.7 636.0,251.5 637.9,253.9C639.9,256.3 641.8,259.7 643.8,260.0C645.7,260.3 647.7,255.9 649.6,255.9C651.5,255.9 653.5,261.0 655.4,260.0C657.4,259.0 659.3,252.2 661.3,249.8C663.2,247.4 665.1,244.0 667.1,245.7C669.0,247.4 671.0,262.0 672.9,260.0C674.9,258.0 676.8,235.2 678.7,233.5C680.7,231.8 682.6,245.4 684.6,249.8C686.5,254.2 688.5,258.6 690.4,260.0C692.3,261.4 694.3,258.0 696.2,258.0C698.2,258.0 700.1,259.7 702.1,260.0C704.0,260.3 705.9,261.0 707.9,260.0C709.8,259.0 711.8,256.9 713.7,253.9C715.7,250.8 717.6,240.6 719.5,241.6C721.5,242.7 723.4,256.9 725.4,260.0C727.3,263.1 729.3,260.0 731.2,260.0C733.1,260.0 735.1,260.0 737.0,260.0C739.0,260.0 740.9,260.0 742.9,260.0C744.8,260.0 746.7,260.7 748.7,260.0C750.6,259.3 752.6,255.9 754.5,255.9C756.5,255.9 758.4,259.3 760.3,260.0C762.3,260.7 764.2,260.0 766.2,260.0C768.1,260.0 770.1,260.0 772.0,260.0C773.9,260.0 775.9,260.0 777.8,260.0C779.8,260.0 781.7,260.0 783.7,260.0C785.6,260.0 787.5,260.0 789.5,260.0C791.4,260.0 793.4,260.3 795.3,260.0C797.3,259.7 799.2,258.0 801.1,258.0C803.1,258.0 805.0,259.7 807.0,260.0C808.9,260.3 810.9,260.0 812.8,260.0C814.7,260.0 816.7,260.0 818.6,260.0C820.6,260.0 822.5,260.0 824.5,260.0C826.4,260.0 828.3,260.0 830.3,260.0C832.2,260.0 834.2,260.0 836.1,260.0C838.1,260.0 840.0,260.0 841.9,260.0C843.9,260.0 845.8,260.0 847.8,260.0C849.7,260.0 851.7,260.0 853.6,260.0C855.5,260.0 857.5,260.0 859.4,260.0C861.4,260.0 863.3,260.3 865.3,260.0C867.2,259.7 870.1,258.3 871.1,258.0L871.1,260.0 L60.9,260.0 Z" fill="url(#dots)"/><path d="M60.9,253.9C61.9,254.9 64.8,259.3 66.7,260.0C68.7,260.7 70.6,258.6 72.6,258.0C74.5,257.3 76.5,255.6 78.4,255.9C80.3,256.3 82.3,259.3 84.2,260.0C86.2,260.7 88.1,260.7 90.1,260.0C92.0,259.3 93.9,256.6 95.9,255.9C97.8,255.2 99.8,255.2 101.7,255.9C103.7,256.6 105.6,259.3 107.5,260.0C109.5,260.7 111.4,260.0 113.4,260.0C115.3,260.0 117.3,261.0 119.2,260.0C121.1,259.0 123.1,254.9 125.0,253.9C127.0,252.9 128.9,252.9 130.9,253.9C132.8,254.9 134.7,259.3 136.7,260.0C138.6,260.7 140.6,258.0 142.5,258.0C144.5,258.0 146.4,259.7 148.3,260.0C150.3,260.3 152.2,260.7 154.2,260.0C156.1,259.3 158.1,258.0 160.0,255.9C161.9,253.8 163.9,246.6 165.8,247.3C167.8,247.9 169.7,257.9 171.7,260.0C173.6,262.1 175.5,261.0 177.5,260.0C179.4,259.0 181.4,256.6 183.3,253.9C185.3,251.2 187.2,245.2 189.1,243.7C191.1,242.2 193.0,243.7 195.0,244.7C196.9,245.7 198.9,248.3 200.8,249.8C202.7,251.3 204.7,252.2 206.6,253.9C208.6,255.6 210.5,260.3 212.5,260.0C214.4,259.7 216.3,257.8 218.3,252.3C220.2,246.9 222.2,230.5 224.1,227.4C226.1,224.2 228.0,228.0 229.9,233.5C231.9,238.9 233.8,255.6 235.8,260.0C237.7,264.4 239.7,260.9 241.6,260.0C243.5,259.1 245.5,257.3 247.4,254.9C249.4,252.5 251.3,246.2 253.3,245.7C255.2,245.2 257.1,256.9 259.1,251.8C261.0,246.7 263.0,227.4 264.9,215.1C266.9,202.9 268.8,171.3 270.7,178.4C272.7,185.5 274.6,247.9 276.6,257.4C278.5,267.0 280.5,238.8 282.4,235.5C284.3,232.2 286.3,237.6 288.2,237.6C290.2,237.6 292.1,236.9 294.1,235.5C296.0,234.2 297.9,231.1 299.9,229.4C301.8,227.7 303.8,224.0 305.7,225.3C307.7,226.7 309.6,232.1 311.5,237.6C313.5,243.0 315.4,255.9 317.4,258.0C319.3,260.0 321.3,251.6 323.2,249.8C325.1,248.0 327.1,248.9 329.0,247.3C331.0,245.6 332.9,240.5 334.9,239.6C336.8,238.7 338.7,250.8 340.7,241.6C342.6,232.5 344.6,193.4 346.5,184.5C348.5,175.7 350.4,188.3 352.3,188.6C354.3,188.9 356.2,187.1 358.2,186.1C360.1,185.0 362.1,182.7 364.0,182.5C365.9,182.2 367.9,183.5 369.8,184.5C371.8,185.5 373.7,187.9 375.7,188.6C377.6,189.3 379.5,188.6 381.5,188.6C383.4,188.6 385.4,188.6 387.3,188.6C389.3,188.6 391.2,188.6 393.1,188.6C395.1,188.6 397.0,188.6 399.0,188.6C400.9,188.6 402.9,188.6 404.8,188.6C406.7,188.6 408.7,188.6 410.6,188.6C412.6,188.6 414.5,190.0 416.5,188.6C418.4,187.2 420.3,181.8 422.3,180.4C424.2,179.1 426.2,176.7 428.1,180.4C430.1,184.2 432.0,202.8 433.9,202.9C435.9,203.0 437.8,183.3 439.8,180.9C441.7,178.6 443.7,190.7 445.6,188.6C447.5,186.5 449.5,173.6 451.4,168.2C453.4,162.8 455.3,153.0 457.3,156.0C459.2,158.9 461.1,181.0 463.1,186.1C465.0,191.2 467.0,187.5 468.9,186.6C470.9,185.6 472.8,180.8 474.7,180.4C476.7,180.1 478.6,184.5 480.6,184.5C482.5,184.5 484.5,179.8 486.4,180.4C488.3,181.1 490.3,187.2 492.2,188.6C494.2,190.0 496.1,188.6 498.1,188.6C500.0,188.6 501.9,188.9 503.9,188.6C505.8,188.3 507.8,187.2 509.7,186.6C511.7,185.9 513.6,185.0 515.5,184.5C517.5,184.0 519.4,183.5 521.4,183.5C523.3,183.5 525.3,183.7 527.2,184.5C529.1,185.4 531.1,187.9 533.0,188.6C535.0,189.3 536.9,188.6 538.9,188.6C540.8,188.6 542.7,188.9 544.7,188.6C546.6,188.3 548.6,186.6 550.5,186.6C552.5,186.6 554.4,188.3 556.3,188.6C558.3,188.9 560.2,186.2 562.2,188.6C564.1,191.0 566.1,191.8 568.0,202.9C569.9,213.9 571.9,246.1 573.8,254.9C575.8,263.7 577.7,255.4 579.7,255.9C581.6,256.4 583.5,260.3 585.5,258.0C587.4,255.6 589.4,241.3 591.3,241.6C593.3,242.0 595.2,258.2 597.1,260.0C599.1,261.8 601.0,252.7 603.0,252.3C604.9,252.0 606.9,256.7 608.8,258.0C610.7,259.2 612.7,259.7 614.6,260.0C616.6,260.3 618.5,260.0 620.5,260.0C622.4,260.0 624.3,262.4 626.3,260.0C628.2,257.6 630.2,246.7 632.1,245.7C634.1,244.7 636.0,251.5 637.9,253.9C639.9,256.3 641.8,259.7 643.8,260.0C645.7,260.3 647.7,255.9 649.6,255.9C651.5,255.9 653.5,261.0 655.4,260.0C657.4,259.0 659.3,252.2 661.3,249.8C663.2,247.4 665.1,244.0 667.1,245.7C669.0,247.4 671.0,262.0 672.9,260.0C674.9,258.0 676.8,235.2 678.7,233.5C680.7,231.8 682.6,245.4 684.6,249.8C686.5,254.2 688.5,258.6 690.4,260.0C692.3,261.4 694.3,258.0 696.2,258.0C698.2,258.0 700.1,259.7 702.1,260.0C704.0,260.3 705.9,261.0 707.9,260.0C709.8,259.0 711.8,256.9 713.7,253.9C715.7,250.8 717.6,240.6 719.5,241.6C721.5,242.7 723.4,256.9 725.4,260.0C727.3,263.1 729.3,260.0 731.2,260.0C733.1,260.0 735.1,260.0 737.0,260.0C739.0,260.0 740.9,260.0 742.9,260.0C744.8,260.0 746.7,260.7 748.7,260.0C750.6,259.3 752.6,255.9 754.5,255.9C756.5,255.9 758.4,259.3 760.3,260.0C762.3,260.7 764.2,260.0 766.2,260.0C768.1,260.0 770.1,260.0 772.0,260.0C773.9,260.0 775.9,260.0 777.8,260.0C779.8,260.0 781.7,260.0 783.7,260.0C785.6,260.0 787.5,260.0 789.5,260.0C791.4,260.0 793.4,260.3 795.3,260.0C797.3,259.7 799.2,258.0 801.1,258.0C803.1,258.0 805.0,259.7 807.0,260.0C808.9,260.3 810.9,260.0 812.8,260.0C814.7,260.0 816.7,260.0 818.6,260.0C820.6,260.0 822.5,260.0 824.5,260.0C826.4,260.0 828.3,260.0 830.3,260.0C832.2,260.0 834.2,260.0 836.1,260.0C838.1,260.0 840.0,260.0 841.9,260.0C843.9,260.0 845.8,260.0 847.8,260.0C849.7,260.0 851.7,260.0 853.6,260.0C855.5,260.0 857.5,260.0 859.4,260.0C861.4,260.0 863.3,260.3 865.3,260.0C867.2,259.7 870.1,258.3 871.1,258.0" fill="none" stroke="#FF4655" stroke-width="2.6" stroke-linejoin="round" stroke-linecap="round"/></svg>