<svg xmlns="http://www.w3.org/2000/svg" width="900" height="300" viewBox="0 0 900 300"><defs><pattern id="dots" width="14" height="14" patternUnits="userSpaceOnUse"><circle cx="7" cy="7" r="1.4" fill="#FF4655" fill-opacity="0.10"/></pattern><linearGradient id="fade" x1="0" y1="0" x2="0" y2="1"><stop offset="0" stop-color="#FF4655" stop-opacity="0.28"/><stop offset="1" stop-color="#FF4655" stop-opacity="0.02"/></linearGradient></defs><path d="M13.5,1.5 H898.5 V286.5 L886.5,298.5 H1.5 V13.5 Z" fill="#F8F6F2" stroke="#DFDAD1" stroke-width="2"/><line x1="75" y1="1.5" x2="75" y2="7.5" stroke="#D8D3C9" stroke-width="1.5"/><line x1="75" y1="298.5" x2="75" y2="292.5" stroke="#D8D3C9" stroke-width="1.5"/><line x1="150" y1="1.5" x2="150" y2="7.5" stroke="#D8D3C9" stroke-width="1.5"/><line x1="150" y1="298.5" x2="150" y2="292.5" stroke="#D8D3C9" stroke-width="1.5"/><line x1="225" y1="1.5" x2="225" y2="7.5" stroke="#D8D3C9" stroke-width="1.5"/><line x1="225" y1="298.5" x2="225" y2="292.5" stroke="#D8D3C9" stroke-width="1.5"/><line x1="300" y1="1.5" x2="300" y2="7.5" stroke="#D8D3C9" stroke-width="1.5"/><line x1="300" y1="298.5" x2="300" y2="292.5" stroke="#D8D3C9" stroke-width="1.5"/><line x1="375" y1="1.5" x2="375" y2="7.5" stroke="#D8D3C9" stroke-width="1.5"/><line x1="375" y1="298.5" x2="375" y2="292.5" stroke="#D8D3C9" stroke-width="1.5"/><line x1="450" y1="1.5" x2="450" y2="7.5" stroke="#D8D3C9" stroke-width="1.5"/><line x1="450" y1="298.5" x2="450" y2="292.5" stroke="#D8D3C9" stroke-width="1.5"/><line x1="525" y1="1.5" x2="525" y2="7.5" stroke="#D8D3C9" stroke-width="1.5"/><line x1="525" y1="298.5" x2="525" y2="292.5" stroke="#D8D3C9" stroke-width="1.5"/><line x1="600" y1="1.5" x2="600" y2="7.5" stroke="#D8D3C9" stroke-width="1.5"/><line x1="600" y1="298.5" x2="600" y2="292.5" stroke="#D8D3C9" stroke-width="1.5"/><line x1="675" y1="1.5" x2="675" y2="7.5" stroke="#D8D3C9" stroke-width="1.5"/><line x1="675" y1="298.5" x2="675" y2="292.5" stroke="#D8D3C9" stroke-width="1.5"/><line x1="750" y1="1.5" x2="750" y2="7.5" stroke="#D8D3C9" stroke-width="1.5"/><line x1="750" y1="298.5" x2="750" y2="292.5" stroke="#D8D3C9" stroke-width="1.5"/><line x1="825" y1="1.5" x2="825" y2="7.5" stroke="#D8D3C9" stroke-width="1.5"/><line x1="825" y1="298.5" x2="825" y2="292.5" stroke="#D8D3C9" stroke-width="1.5"/><text x="58" y="31" font-family="ui-monospace, SFMono-Regular, Menlo, Consolas, monospace" font-size="13" letter-spacing="3" fill="#6E7580">PLAYERS — LAST 14 DAYS</text><line x1="58" y1="260.0" x2="874" y2="260.0" stroke="#E7E2D9" stroke-width="1"/><text x="48" y="264.0" text-anchor="end" font-family="ui-monospace, SFMono-Regular, Menlo, Consolas, monospace" font-size="12" fill="#6E7580">0</text><line x1="58" y1="209.0" x2="874" y2="209.0" stroke="#E7E2D9" stroke-width="1"/><text x="48" y="213.0" text-anchor="end" font-family="ui-monospace, SFMono-Regular, Menlo, Consolas, monospace" font-size="12" fill="#6E7580">25</text><line x1="58" y1="158.0" x2="874" y2="158.0" stroke="#E7E2D9" stroke-width="1"/><text x="48" y="162.0" text-anchor="end" font-family="ui-monospace, SFMono-Regular, Menlo, Consolas, monospace" font-size="12" fill="#6E7580">50</text><line x1="58" y1="107.0" x2="874" y2="107.0" stroke="#E7E2D9" stroke-width="1"/><text x="48" y="111.0" text-anchor="end" font-family="ui-monospace, SFMono-Regular, Menlo, Consolas, monospace" font-size="12" fill="#6E7580">75</text><line x1="58" y1="56.0" x2="874" y2="56.0" stroke="#E7E2D9" stroke-width="1"/><text x="48" y="60.0" text-anchor="end" font-family="ui-monospace, SFMono-Regular, Menlo, Consolas, monospace" font-size="12" fill="#6E7580">100</text><text x="58.0" y="284" text-anchor="start" font-family="ui-monospace, SFMono-Regular, Menlo, Consolas, monospace" font-size="12" letter-spacing="1" fill="#6E7580">JUL 10</text><text x="262.0" y="284" text-anchor="middle" font-family="ui-monospace, SFMono-Regular, Menlo, Consolas, monospace" font-size="12" letter-spacing="1" fill="#6E7580">JUL 14</text><text x="466.0" y="284" text-anchor="middle" font-family="ui-monospace, SFMono-Regular, Menlo, Consolas, monospace" font-size="12" letter-spacing="1" fill="#6E7580">JUL 17</text><text x="670.0" y="284" text-anchor="middle" font-family="ui-monospace, SFMono-Regular, Menlo, Consolas, monospace" font-size="12" letter-spacing="1" fill="#6E7580">JUL 21</text><text x="874.0" y="284" text-anchor="end" font-family="ui-monospace, SFMono-Regular, Menlo, Consolas, monospace" font-size="12" letter-spacing="1" fill="#6E7580">JUL 24</text><path d="M60.9,74.4C61.9,73.9 64.8,72.0 66.7,71.5C68.7,71.0 70.6,71.9 72.6,71.5C74.5,71.1 76.5,62.5 78.4,69.1C80.3,75.7 82.3,103.6 84.2,111.1C86.2,118.6 88.1,115.6 90.1,113.9C92.0,112.3 93.9,107.3 95.9,101.3C97.8,95.2 99.8,75.6 101.7,77.6C103.7,79.7 105.6,108.1 107.5,113.5C109.5,118.9 111.4,116.0 113.4,110.1C115.3,104.1 117.3,83.0 119.2,78.0C121.1,73.0 123.1,79.6 125.0,80.1C127.0,80.5 128.9,81.2 130.9,80.9C132.8,80.6 134.7,78.7 136.7,78.4C138.6,78.2 140.6,72.7 142.5,79.3C144.5,85.9 146.4,87.9 148.3,118.0C150.3,148.1 152.2,244.0 154.2,260.0C156.1,276.0 158.1,243.8 160.0,214.3C161.9,184.8 163.9,105.3 165.8,83.0C167.8,60.7 169.7,80.4 171.7,80.5C173.6,80.5 175.5,83.2 177.5,83.3C179.4,83.5 181.4,81.8 183.3,81.3C185.3,80.8 187.2,80.0 189.1,80.1C191.1,80.1 193.0,80.8 195.0,81.5C196.9,82.2 198.9,85.2 200.8,84.6C202.7,83.9 204.7,79.0 206.6,77.6C208.6,76.3 210.5,75.1 212.5,76.4C214.4,77.7 216.3,82.0 218.3,85.6C220.2,89.1 222.2,98.9 224.1,97.6C226.1,96.4 228.0,80.8 229.9,78.0C231.9,75.2 233.8,80.1 235.8,80.9C237.7,81.7 239.7,83.2 241.6,82.9C243.5,82.7 245.5,80.1 247.4,79.5C249.4,78.8 251.3,78.1 253.3,78.8C255.2,79.6 257.1,82.7 259.1,83.7C261.0,84.8 263.0,85.4 264.9,85.0C266.9,84.5 268.8,82.1 270.7,80.9C272.7,79.6 274.6,78.0 276.6,77.4C278.5,76.8 280.5,76.6 282.4,77.2C284.3,77.8 286.3,81.4 288.2,80.9C290.2,80.4 292.1,75.0 294.1,74.4C296.0,73.7 297.9,75.3 299.9,76.9C301.8,78.5 303.8,83.4 305.7,83.7C307.7,84.1 309.6,80.5 311.5,79.3C313.5,78.0 315.4,71.6 317.4,76.0C319.3,80.3 321.3,105.8 323.2,105.4C325.1,104.9 327.1,77.0 329.0,73.3C331.0,69.7 332.9,81.7 334.9,83.3C336.8,84.9 338.7,82.8 340.7,82.9C342.6,83.1 344.6,84.6 346.5,84.2C348.5,83.7 350.4,81.7 352.3,80.5C354.3,79.3 356.2,70.9 358.2,76.9C360.1,83.0 362.1,115.1 364.0,116.8C365.9,118.5 367.9,92.5 369.8,87.0C371.8,81.5 373.7,83.6 375.7,83.7C377.6,83.8 379.5,88.7 381.5,87.6C383.4,86.5 385.4,70.0 387.3,77.2C389.3,84.4 391.2,100.9 393.1,130.7C395.1,160.4 397.0,234.7 399.0,255.9C400.9,277.1 402.9,257.3 404.8,258.0C406.7,258.6 408.7,259.7 410.6,260.0C412.6,260.3 414.5,260.1 416.5,260.0C418.4,259.9 420.3,259.9 422.3,259.6C424.2,259.3 426.2,258.1 428.1,258.0C430.1,257.8 432.0,258.8 433.9,258.8C435.9,258.8 437.8,258.4 439.8,258.0C441.7,257.6 443.7,256.7 445.6,256.3C447.5,256.0 449.5,256.0 451.4,255.9C453.4,255.9 455.3,255.8 457.3,255.9C459.2,256.1 461.1,256.7 463.1,256.9C465.0,257.1 467.0,257.2 468.9,257.1C470.9,257.0 472.8,256.5 474.7,256.3C476.7,256.2 478.6,256.3 480.6,256.3C482.5,256.4 484.5,256.5 486.4,256.7C488.3,257.0 490.3,257.7 492.2,258.0C494.2,258.2 496.1,258.2 498.1,258.4C500.0,258.6 501.9,259.3 503.9,259.2C505.8,259.0 507.8,258.1 509.7,257.6C511.7,257.0 513.6,256.3 515.5,255.9C517.5,255.6 519.4,255.3 521.4,255.4C523.3,255.5 525.3,255.9 527.2,256.3C529.1,256.8 531.1,258.1 533.0,258.0C535.0,257.8 536.9,255.5 538.9,255.5C540.8,255.5 542.7,257.6 544.7,258.0C546.6,258.4 548.6,258.0 550.5,258.0C552.5,258.0 554.4,258.0 556.3,258.0C558.3,258.0 560.2,258.0 562.2,258.0C564.1,258.0 566.1,258.0 568.0,258.0C569.9,258.0 571.9,258.0 573.8,258.0C575.8,258.0 577.7,258.0 579.7,258.0C581.6,258.0 583.5,257.8 585.5,258.0C587.4,258.2 589.4,259.0 591.3,259.2C593.3,259.4 595.2,259.4 597.1,259.2C599.1,259.0 601.0,258.1 603.0,258.0C604.9,257.8 606.9,258.4 608.8,258.4C610.7,258.4 612.7,258.3 614.6,258.0C616.6,257.6 618.5,256.5 620.5,256.3C622.4,256.2 624.3,257.0 626.3,256.9C628.2,256.9 630.2,256.2 632.1,255.9C634.1,255.6 636.0,255.2 637.9,255.1C639.9,255.0 641.8,255.0 643.8,255.1C645.7,255.2 647.7,255.7 649.6,255.9C651.5,256.1 653.5,256.4 655.4,256.4C657.4,256.4 659.3,255.7 661.3,255.9C663.2,256.1 665.1,257.2 667.1,257.6C669.0,257.9 671.0,257.9 672.9,258.0C674.9,258.0 676.8,258.0 678.7,258.0C680.7,258.0 682.6,258.0 684.6,258.0C686.5,257.9 688.5,257.8 690.4,257.6C692.3,257.3 694.3,256.3 696.2,256.3C698.2,256.4 700.1,257.7 702.1,258.0C704.0,258.2 705.9,258.0 707.9,258.0C709.8,258.0 711.8,258.0 713.7,258.0C715.7,258.0 717.6,258.0 719.5,258.0C721.5,258.0 723.4,258.0 725.4,258.0C727.3,258.0 729.3,258.2 731.2,258.0C733.1,257.7 735.1,256.4 737.0,256.4C739.0,256.4 740.9,257.7 742.9,258.0C744.8,258.2 746.7,258.0 748.7,258.0C750.6,258.0 752.6,258.2 754.5,258.0C756.5,257.7 758.4,256.7 760.3,256.3C762.3,256.0 764.2,255.8 766.2,255.9C768.1,256.1 770.1,256.9 772.0,257.1C773.9,257.4 775.9,257.5 777.8,257.6C779.8,257.6 781.7,257.5 783.7,257.6C785.6,257.6 787.5,258.0 789.5,258.0C791.4,258.0 793.4,257.6 795.3,257.6C797.3,257.6 799.2,258.0 801.1,258.0C803.1,258.0 805.0,257.8 807.0,257.6C808.9,257.3 810.9,256.4 812.8,256.3C814.7,256.2 816.7,256.7 818.6,256.9C820.6,257.2 822.5,257.8 824.5,258.0C826.4,258.1 828.3,258.6 830.3,258.0C832.2,257.3 834.2,282.8 836.1,254.3C838.1,225.7 840.0,112.1 841.9,86.6C843.9,61.1 845.8,102.2 847.8,101.4C849.7,100.6 851.7,73.4 853.6,81.7C855.5,90.1 857.5,144.2 859.4,151.5C861.4,158.7 863.3,130.5 865.3,125.4C867.2,120.3 870.1,121.6 871.1,120.9L871.1,260.0 L60.9,260.0 Z" fill="url(#fade)"/><path d="M60.9,74.4C61.9,73.9 64.8,72.0 66.7,71.5C68.7,71.0 70.6,71.9 72.6,71.5C74.5,71.1 76.5,62.5 78.4,69.1C80.3,75.7 82.3,103.6 84.2,111.1C86.2,118.6 88.1,115.6 90.1,113.9C92.0,112.3 93.9,107.3 95.9,101.3C97.8,95.2 99.8,75.6 101.7,77.6C103.7,79.7 105.6,108.1 107.5,113.5C109.5,118.9 111.4,116.0 113.4,110.1C115.3,104.1 117.3,83.0 119.2,78.0C121.1,73.0 123.1,79.6 125.0,80.1C127.0,80.5 128.9,81.2 130.9,80.9C132.8,80.6 134.7,78.7 136.7,78.4C138.6,78.2 140.6,72.7 142.5,79.3C144.5,85.9 146.4,87.9 148.3,118.0C150.3,148.1 152.2,244.0 154.2,260.0C156.1,276.0 158.1,243.8 160.0,214.3C161.9,184.8 163.9,105.3 165.8,83.0C167.8,60.7 169.7,80.4 171.7,80.5C173.6,80.5 175.5,83.2 177.5,83.3C179.4,83.5 181.4,81.8 183.3,81.3C185.3,80.8 187.2,80.0 189.1,80.1C191.1,80.1 193.0,80.8 195.0,81.5C196.9,82.2 198.9,85.2 200.8,84.6C202.7,83.9 204.7,79.0 206.6,77.6C208.6,76.3 210.5,75.1 212.5,76.4C214.4,77.7 216.3,82.0 218.3,85.6C220.2,89.1 222.2,98.9 224.1,97.6C226.1,96.4 228.0,80.8 229.9,78.0C231.9,75.2 233.8,80.1 235.8,80.9C237.7,81.7 239.7,83.2 241.6,82.9C243.5,82.7 245.5,80.1 247.4,79.5C249.4,78.8 251.3,78.1 253.3,78.8C255.2,79.6 257.1,82.7 259.1,83.7C261.0,84.8 263.0,85.4 264.9,85.0C266.9,84.5 268.8,82.1 270.7,80.9C272.7,79.6 274.6,78.0 276.6,77.4C278.5,76.8 280.5,76.6 282.4,77.2C284.3,77.8 286.3,81.4 288.2,80.9C290.2,80.4 292.1,75.0 294.1,74.4C296.0,73.7 297.9,75.3 299.9,76.9C301.8,78.5 303.8,83.4 305.7,83.7C307.7,84.1 309.6,80.5 311.5,79.3C313.5,78.0 315.4,71.6 317.4,76.0C319.3,80.3 321.3,105.8 323.2,105.4C325.1,104.9 327.1,77.0 329.0,73.3C331.0,69.7 332.9,81.7 334.9,83.3C336.8,84.9 338.7,82.8 340.7,82.9C342.6,83.1 344.6,84.6 346.5,84.2C348.5,83.7 350.4,81.7 352.3,80.5C354.3,79.3 356.2,70.9 358.2,76.9C360.1,83.0 362.1,115.1 364.0,116.8C365.9,118.5 367.9,92.5 369.8,87.0C371.8,81.5 373.7,83.6 375.7,83.7C377.6,83.8 379.5,88.7 381.5,87.6C383.4,86.5 385.4,70.0 387.3,77.2C389.3,84.4 391.2,100.9 393.1,130.7C395.1,160.4 397.0,234.7 399.0,255.9C400.9,277.1 402.9,257.3 404.8,258.0C406.7,258.6 408.7,259.7 410.6,260.0C412.6,260.3 414.5,260.1 416.5,260.0C418.4,259.9 420.3,259.9 422.3,259.6C424.2,259.3 426.2,258.1 428.1,258.0C430.1,257.8 432.0,258.8 433.9,258.8C435.9,258.8 437.8,258.4 439.8,258.0C441.7,257.6 443.7,256.7 445.6,256.3C447.5,256.0 449.5,256.0 451.4,255.9C453.4,255.9 455.3,255.8 457.3,255.9C459.2,256.1 461.1,256.7 463.1,256.9C465.0,257.1 467.0,257.2 468.9,257.1C470.9,257.0 472.8,256.5 474.7,256.3C476.7,256.2 478.6,256.3 480.6,256.3C482.5,256.4 484.5,256.5 486.4,256.7C488.3,257.0 490.3,257.7 492.2,258.0C494.2,258.2 496.1,258.2 498.1,258.4C500.0,258.6 501.9,259.3 503.9,259.2C505.8,259.0 507.8,258.1 509.7,257.6C511.7,257.0 513.6,256.3 515.5,255.9C517.5,255.6 519.4,255.3 521.4,255.4C523.3,255.5 525.3,255.9 527.2,256.3C529.1,256.8 531.1,258.1 533.0,258.0C535.0,257.8 536.9,255.5 538.9,255.5C540.8,255.5 542.7,257.6 544.7,258.0C546.6,258.4 548.6,258.0 550.5,258.0C552.5,258.0 554.4,258.0 556.3,258.0C558.3,258.0 560.2,258.0 562.2,258.0C564.1,258.0 566.1,258.0 568.0,258.0C569.9,258.0 571.9,258.0 573.8,258.0C575.8,258.0 577.7,258.0 579.7,258.0C581.6,258.0 583.5,257.8 585.5,258.0C587.4,258.2 589.4,259.0 591.3,259.2C593.3,259.4 595.2,259.4 597.1,259.2C599.1,259.0 601.0,258.1 603.0,258.0C604.9,257.8 606.9,258.4 608.8,258.4C610.7,258.4 612.7,258.3 614.6,258.0C616.6,257.6 618.5,256.5 620.5,256.3C622.4,256.2 624.3,257.0 626.3,256.9C628.2,256.9 630.2,256.2 632.1,255.9C634.1,255.6 636.0,255.2 637.9,255.1C639.9,255.0 641.8,255.0 643.8,255.1C645.7,255.2 647.7,255.7 649.6,255.9C651.5,256.1 653.5,256.4 655.4,256.4C657.4,256.4 659.3,255.7 661.3,255.9C663.2,256.1 665.1,257.2 667.1,257.6C669.0,257.9 671.0,257.9 672.9,258.0C674.9,258.0 676.8,258.0 678.7,258.0C680.7,258.0 682.6,258.0 684.6,258.0C686.5,257.9 688.5,257.8 690.4,257.6C692.3,257.3 694.3,256.3 696.2,256.3C698.2,256.4 700.1,257.7 702.1,258.0C704.0,258.2 705.9,258.0 707.9,258.0C709.8,258.0 711.8,258.0 713.7,258.0C715.7,258.0 717.6,258.0 719.5,258.0C721.5,258.0 723.4,258.0 725.4,258.0C727.3,258.0 729.3,258.2 731.2,258.0C733.1,257.7 735.1,256.4 737.0,256.4C739.0,256.4 740.9,257.7 742.9,258.0C744.8,258.2 746.7,258.0 748.7,258.0C750.6,258.0 752.6,258.2 754.5,258.0C756.5,257.7 758.4,256.7 760.3,256.3C762.3,256.0 764.2,255.8 766.2,255.9C768.1,256.1 770.1,256.9 772.0,257.1C773.9,257.4 775.9,257.5 777.8,257.6C779.8,257.6 781.7,257.5 783.7,257.6C785.6,257.6 787.5,258.0 789.5,258.0C791.4,258.0 793.4,257.6 795.3,257.6C797.3,257.6 799.2,258.0 801.1,258.0C803.1,258.0 805.0,257.8 807.0,257.6C808.9,257.3 810.9,256.4 812.8,256.3C814.7,256.2 816.7,256.7 818.6,256.9C820.6,257.2 822.5,257.8 824.5,258.0C826.4,258.1 828.3,258.6 830.3,258.0C832.2,257.3 834.2,282.8 836.1,254.3C838.1,225.7 840.0,112.1 841.9,86.6C843.9,61.1 845.8,102.2 847.8,101.4C849.7,100.6 851.7,73.4 853.6,81.7C855.5,90.1 857.5,144.2 859.4,151.5C861.4,158.7 863.3,130.5 865.3,125.4C867.2,120.3 870.1,121.6 871.1,120.9L871.1,260.0 L60.9,260.0 Z" fill="url(#dots)"/><path d="M60.9,74.4C61.9,73.9 64.8,72.0 66.7,71.5C68.7,71.0 70.6,71.9 72.6,71.5C74.5,71.1 76.5,62.5 78.4,69.1C80.3,75.7 82.3,103.6 84.2,111.1C86.2,118.6 88.1,115.6 90.1,113.9C92.0,112.3 93.9,107.3 95.9,101.3C97.8,95.2 99.8,75.6 101.7,77.6C103.7,79.7 105.6,108.1 107.5,113.5C109.5,118.9 111.4,116.0 113.4,110.1C115.3,104.1 117.3,83.0 119.2,78.0C121.1,73.0 123.1,79.6 125.0,80.1C127.0,80.5 128.9,81.2 130.9,80.9C132.8,80.6 134.7,78.7 136.7,78.4C138.6,78.2 140.6,72.7 142.5,79.3C144.5,85.9 146.4,87.9 148.3,118.0C150.3,148.1 152.2,244.0 154.2,260.0C156.1,276.0 158.1,243.8 160.0,214.3C161.9,184.8 163.9,105.3 165.8,83.0C167.8,60.7 169.7,80.4 171.7,80.5C173.6,80.5 175.5,83.2 177.5,83.3C179.4,83.5 181.4,81.8 183.3,81.3C185.3,80.8 187.2,80.0 189.1,80.1C191.1,80.1 193.0,80.8 195.0,81.5C196.9,82.2 198.9,85.2 200.8,84.6C202.7,83.9 204.7,79.0 206.6,77.6C208.6,76.3 210.5,75.1 212.5,76.4C214.4,77.7 216.3,82.0 218.3,85.6C220.2,89.1 222.2,98.9 224.1,97.6C226.1,96.4 228.0,80.8 229.9,78.0C231.9,75.2 233.8,80.1 235.8,80.9C237.7,81.7 239.7,83.2 241.6,82.9C243.5,82.7 245.5,80.1 247.4,79.5C249.4,78.8 251.3,78.1 253.3,78.8C255.2,79.6 257.1,82.7 259.1,83.7C261.0,84.8 263.0,85.4 264.9,85.0C266.9,84.5 268.8,82.1 270.7,80.9C272.7,79.6 274.6,78.0 276.6,77.4C278.5,76.8 280.5,76.6 282.4,77.2C284.3,77.8 286.3,81.4 288.2,80.9C290.2,80.4 292.1,75.0 294.1,74.4C296.0,73.7 297.9,75.3 299.9,76.9C301.8,78.5 303.8,83.4 305.7,83.7C307.7,84.1 309.6,80.5 311.5,79.3C313.5,78.0 315.4,71.6 317.4,76.0C319.3,80.3 321.3,105.8 323.2,105.4C325.1,104.9 327.1,77.0 329.0,73.3C331.0,69.7 332.9,81.7 334.9,83.3C336.8,84.9 338.7,82.8 340.7,82.9C342.6,83.1 344.6,84.6 346.5,84.2C348.5,83.7 350.4,81.7 352.3,80.5C354.3,79.3 356.2,70.9 358.2,76.9C360.1,83.0 362.1,115.1 364.0,116.8C365.9,118.5 367.9,92.5 369.8,87.0C371.8,81.5 373.7,83.6 375.7,83.7C377.6,83.8 379.5,88.7 381.5,87.6C383.4,86.5 385.4,70.0 387.3,77.2C389.3,84.4 391.2,100.9 393.1,130.7C395.1,160.4 397.0,234.7 399.0,255.9C400.9,277.1 402.9,257.3 404.8,258.0C406.7,258.6 408.7,259.7 410.6,260.0C412.6,260.3 414.5,260.1 416.5,260.0C418.4,259.9 420.3,259.9 422.3,259.6C424.2,259.3 426.2,258.1 428.1,258.0C430.1,257.8 432.0,258.8 433.9,258.8C435.9,258.8 437.8,258.4 439.8,258.0C441.7,257.6 443.7,256.7 445.6,256.3C447.5,256.0 449.5,256.0 451.4,255.9C453.4,255.9 455.3,255.8 457.3,255.9C459.2,256.1 461.1,256.7 463.1,256.9C465.0,257.1 467.0,257.2 468.9,257.1C470.9,257.0 472.8,256.5 474.7,256.3C476.7,256.2 478.6,256.3 480.6,256.3C482.5,256.4 484.5,256.5 486.4,256.7C488.3,257.0 490.3,257.7 492.2,258.0C494.2,258.2 496.1,258.2 498.1,258.4C500.0,258.6 501.9,259.3 503.9,259.2C505.8,259.0 507.8,258.1 509.7,257.6C511.7,257.0 513.6,256.3 515.5,255.9C517.5,255.6 519.4,255.3 521.4,255.4C523.3,255.5 525.3,255.9 527.2,256.3C529.1,256.8 531.1,258.1 533.0,258.0C535.0,257.8 536.9,255.5 538.9,255.5C540.8,255.5 542.7,257.6 544.7,258.0C546.6,258.4 548.6,258.0 550.5,258.0C552.5,258.0 554.4,258.0 556.3,258.0C558.3,258.0 560.2,258.0 562.2,258.0C564.1,258.0 566.1,258.0 568.0,258.0C569.9,258.0 571.9,258.0 573.8,258.0C575.8,258.0 577.7,258.0 579.7,258.0C581.6,258.0 583.5,257.8 585.5,258.0C587.4,258.2 589.4,259.0 591.3,259.2C593.3,259.4 595.2,259.4 597.1,259.2C599.1,259.0 601.0,258.1 603.0,258.0C604.9,257.8 606.9,258.4 608.8,258.4C610.7,258.4 612.7,258.3 614.6,258.0C616.6,257.6 618.5,256.5 620.5,256.3C622.4,256.2 624.3,257.0 626.3,256.9C628.2,256.9 630.2,256.2 632.1,255.9C634.1,255.6 636.0,255.2 637.9,255.1C639.9,255.0 641.8,255.0 643.8,255.1C645.7,255.2 647.7,255.7 649.6,255.9C651.5,256.1 653.5,256.4 655.4,256.4C657.4,256.4 659.3,255.7 661.3,255.9C663.2,256.1 665.1,257.2 667.1,257.6C669.0,257.9 671.0,257.9 672.9,258.0C674.9,258.0 676.8,258.0 678.7,258.0C680.7,258.0 682.6,258.0 684.6,258.0C686.5,257.9 688.5,257.8 690.4,257.6C692.3,257.3 694.3,256.3 696.2,256.3C698.2,256.4 700.1,257.7 702.1,258.0C704.0,258.2 705.9,258.0 707.9,258.0C709.8,258.0 711.8,258.0 713.7,258.0C715.7,258.0 717.6,258.0 719.5,258.0C721.5,258.0 723.4,258.0 725.4,258.0C727.3,258.0 729.3,258.2 731.2,258.0C733.1,257.7 735.1,256.4 737.0,256.4C739.0,256.4 740.9,257.7 742.9,258.0C744.8,258.2 746.7,258.0 748.7,258.0C750.6,258.0 752.6,258.2 754.5,258.0C756.5,257.7 758.4,256.7 760.3,256.3C762.3,256.0 764.2,255.8 766.2,255.9C768.1,256.1 770.1,256.9 772.0,257.1C773.9,257.4 775.9,257.5 777.8,257.6C779.8,257.6 781.7,257.5 783.7,257.6C785.6,257.6 787.5,258.0 789.5,258.0C791.4,258.0 793.4,257.6 795.3,257.6C797.3,257.6 799.2,258.0 801.1,258.0C803.1,258.0 805.0,257.8 807.0,257.6C808.9,257.3 810.9,256.4 812.8,256.3C814.7,256.2 816.7,256.7 818.6,256.9C820.6,257.2 822.5,257.8 824.5,258.0C826.4,258.1 828.3,258.6 830.3,258.0C832.2,257.3 834.2,282.8 836.1,254.3C838.1,225.7 840.0,112.1 841.9,86.6C843.9,61.1 845.8,102.2 847.8,101.4C849.7,100.6 851.7,73.4 853.6,81.7C855.5,90.1 857.5,144.2 859.4,151.5C861.4,158.7 863.3,130.5 865.3,125.4C867.2,120.3 870.1,121.6 871.1,120.9" fill="none" stroke="#FF4655" stroke-width="2.6" stroke-linejoin="round" stroke-linecap="round"/></svg>