<svg xmlns="http://www.w3.org/2000/svg" width="900" height="300" viewBox="0 0 900 300"><defs><pattern id="dots" width="14" height="14" patternUnits="userSpaceOnUse"><circle cx="7" cy="7" r="1.4" fill="#FF4655" fill-opacity="0.10"/></pattern><linearGradient id="fade" x1="0" y1="0" x2="0" y2="1"><stop offset="0" stop-color="#FF4655" stop-opacity="0.28"/><stop offset="1" stop-color="#FF4655" stop-opacity="0.02"/></linearGradient></defs><path d="M13.5,1.5 H898.5 V286.5 L886.5,298.5 H1.5 V13.5 Z" fill="#F8F6F2" stroke="#DFDAD1" stroke-width="2"/><line x1="75" y1="1.5" x2="75" y2="7.5" stroke="#D8D3C9" stroke-width="1.5"/><line x1="75" y1="298.5" x2="75" y2="292.5" stroke="#D8D3C9" stroke-width="1.5"/><line x1="150" y1="1.5" x2="150" y2="7.5" stroke="#D8D3C9" stroke-width="1.5"/><line x1="150" y1="298.5" x2="150" y2="292.5" stroke="#D8D3C9" stroke-width="1.5"/><line x1="225" y1="1.5" x2="225" y2="7.5" stroke="#D8D3C9" stroke-width="1.5"/><line x1="225" y1="298.5" x2="225" y2="292.5" stroke="#D8D3C9" stroke-width="1.5"/><line x1="300" y1="1.5" x2="300" y2="7.5" stroke="#D8D3C9" stroke-width="1.5"/><line x1="300" y1="298.5" x2="300" y2="292.5" stroke="#D8D3C9" stroke-width="1.5"/><line x1="375" y1="1.5" x2="375" y2="7.5" stroke="#D8D3C9" stroke-width="1.5"/><line x1="375" y1="298.5" x2="375" y2="292.5" stroke="#D8D3C9" stroke-width="1.5"/><line x1="450" y1="1.5" x2="450" y2="7.5" stroke="#D8D3C9" stroke-width="1.5"/><line x1="450" y1="298.5" x2="450" y2="292.5" stroke="#D8D3C9" stroke-width="1.5"/><line x1="525" y1="1.5" x2="525" y2="7.5" stroke="#D8D3C9" stroke-width="1.5"/><line x1="525" y1="298.5" x2="525" y2="292.5" stroke="#D8D3C9" stroke-width="1.5"/><line x1="600" y1="1.5" x2="600" y2="7.5" stroke="#D8D3C9" stroke-width="1.5"/><line x1="600" y1="298.5" x2="600" y2="292.5" stroke="#D8D3C9" stroke-width="1.5"/><line x1="675" y1="1.5" x2="675" y2="7.5" stroke="#D8D3C9" stroke-width="1.5"/><line x1="675" y1="298.5" x2="675" y2="292.5" stroke="#D8D3C9" stroke-width="1.5"/><line x1="750" y1="1.5" x2="750" y2="7.5" stroke="#D8D3C9" stroke-width="1.5"/><line x1="750" y1="298.5" x2="750" y2="292.5" stroke="#D8D3C9" stroke-width="1.5"/><line x1="825" y1="1.5" x2="825" y2="7.5" stroke="#D8D3C9" stroke-width="1.5"/><line x1="825" y1="298.5" x2="825" y2="292.5" stroke="#D8D3C9" stroke-width="1.5"/><text x="58" y="31" font-family="ui-monospace, SFMono-Regular, Menlo, Consolas, monospace" font-size="13" letter-spacing="3" fill="#6E7580">PLAYERS — LAST 14 DAYS</text><line x1="58" y1="260.0" x2="874" y2="260.0" stroke="#E7E2D9" stroke-width="1"/><text x="48" y="264.0" text-anchor="end" font-family="ui-monospace, SFMono-Regular, Menlo, Consolas, monospace" font-size="12" fill="#6E7580">0</text><line x1="58" y1="209.0" x2="874" y2="209.0" stroke="#E7E2D9" stroke-width="1"/><text x="48" y="213.0" text-anchor="end" font-family="ui-monospace, SFMono-Regular, Menlo, Consolas, monospace" font-size="12" fill="#6E7580">25</text><line x1="58" y1="158.0" x2="874" y2="158.0" stroke="#E7E2D9" stroke-width="1"/><text x="48" y="162.0" text-anchor="end" font-family="ui-monospace, SFMono-Regular, Menlo, Consolas, monospace" font-size="12" fill="#6E7580">50</text><line x1="58" y1="107.0" x2="874" y2="107.0" stroke="#E7E2D9" stroke-width="1"/><text x="48" y="111.0" text-anchor="end" font-family="ui-monospace, SFMono-Regular, Menlo, Consolas, monospace" font-size="12" fill="#6E7580">75</text><line x1="58" y1="56.0" x2="874" y2="56.0" stroke="#E7E2D9" stroke-width="1"/><text x="48" y="60.0" text-anchor="end" font-family="ui-monospace, SFMono-Regular, Menlo, Consolas, monospace" font-size="12" fill="#6E7580">100</text><text x="58.0" y="284" text-anchor="start" font-family="ui-monospace, SFMono-Regular, Menlo, Consolas, monospace" font-size="12" letter-spacing="1" fill="#6E7580">JUL 4</text><text x="262.0" y="284" text-anchor="middle" font-family="ui-monospace, SFMono-Regular, Menlo, Consolas, monospace" font-size="12" letter-spacing="1" fill="#6E7580">JUL 8</text><text x="466.0" y="284" text-anchor="middle" font-family="ui-monospace, SFMono-Regular, Menlo, Consolas, monospace" font-size="12" letter-spacing="1" fill="#6E7580">JUL 11</text><text x="670.0" y="284" text-anchor="middle" font-family="ui-monospace, SFMono-Regular, Menlo, Consolas, monospace" font-size="12" letter-spacing="1" fill="#6E7580">JUL 15</text><text x="874.0" y="284" text-anchor="end" font-family="ui-monospace, SFMono-Regular, Menlo, Consolas, monospace" font-size="12" letter-spacing="1" fill="#6E7580">JUL 18</text><path d="M60.9,81.7C61.9,80.8 64.8,75.6 66.7,76.0C68.7,76.4 70.6,83.5 72.6,84.2C74.5,84.8 76.5,81.4 78.4,80.1C80.3,78.8 82.3,76.3 84.2,76.4C86.2,76.5 88.1,80.5 90.1,80.5C92.0,80.5 93.9,70.8 95.9,76.4C97.8,82.0 99.8,106.7 101.7,113.9C103.7,121.1 105.6,117.2 107.5,119.6C109.5,122.1 111.4,135.4 113.4,128.4C115.3,121.5 117.3,85.1 119.2,78.0C121.1,70.9 123.1,86.1 125.0,85.8C127.0,85.5 128.9,78.6 130.9,76.4C132.8,74.2 134.7,71.9 136.7,72.8C138.6,73.8 140.6,80.7 142.5,82.1C144.5,83.5 146.4,82.0 148.3,81.3C150.3,80.6 152.2,77.4 154.2,78.0C156.1,78.6 158.1,84.9 160.0,85.0C161.9,85.0 163.9,49.4 165.8,78.4C167.8,107.5 169.7,228.9 171.7,259.2C173.6,289.4 175.5,260.1 177.5,260.0C179.4,259.9 181.4,261.1 183.3,258.8C185.3,256.5 187.2,275.8 189.1,246.1C191.1,216.4 193.0,105.2 195.0,80.5C196.9,55.8 198.9,94.2 200.8,98.0C202.7,101.8 204.7,106.8 206.6,103.3C208.6,99.9 210.5,77.1 212.5,77.2C214.4,77.3 216.3,100.1 218.3,103.9C220.2,107.8 222.2,104.0 224.1,100.5C226.1,97.0 228.0,86.2 229.9,82.9C231.9,79.7 233.8,69.7 235.8,80.9C237.7,92.1 239.7,137.7 241.6,150.2C243.5,162.8 245.5,168.4 247.4,156.5C249.4,144.5 251.3,90.8 253.3,78.4C255.2,66.1 257.1,81.4 259.1,82.5C261.0,83.7 263.0,85.7 264.9,85.4C266.9,85.0 268.8,81.6 270.7,80.5C272.7,79.3 274.6,78.8 276.6,78.4C278.5,78.0 280.5,77.9 282.4,78.0C284.3,78.2 286.3,79.4 288.2,79.3C290.2,79.1 292.1,78.1 294.1,77.2C296.0,76.3 297.9,73.4 299.9,73.8C301.8,74.3 303.8,74.1 305.7,80.1C307.7,86.0 309.6,109.6 311.5,109.4C313.5,109.3 315.4,83.3 317.4,79.3C319.3,75.2 321.3,81.1 323.2,85.4C325.1,89.7 327.1,106.2 329.0,105.0C331.0,103.7 332.9,81.9 334.9,78.0C336.8,74.2 338.7,82.0 340.7,81.7C342.6,81.4 344.6,76.3 346.5,76.0C348.5,75.7 350.4,79.6 352.3,80.1C354.3,80.6 356.2,79.4 358.2,79.0C360.1,78.5 362.1,77.8 364.0,77.6C365.9,77.4 367.9,64.0 369.8,77.6C371.8,91.2 373.7,158.5 375.7,159.2C377.6,160.0 379.5,95.9 381.5,82.0C383.4,68.1 385.4,77.1 387.3,75.6C389.3,74.1 391.2,72.6 393.1,73.1C395.1,73.7 397.0,78.8 399.0,78.8C400.9,78.8 402.9,74.3 404.8,73.1C406.7,72.0 408.7,72.4 410.6,71.8C412.6,71.3 414.5,65.5 416.5,69.9C418.4,74.2 420.3,90.8 422.3,98.0C424.2,105.2 426.2,116.5 428.1,113.1C430.1,109.8 432.0,78.8 433.9,78.0C435.9,77.3 437.8,108.6 439.8,108.5C441.7,108.5 443.7,73.1 445.6,77.6C447.5,82.2 449.5,135.5 451.4,136.0C453.4,136.4 455.3,90.1 457.3,80.5C459.2,70.9 461.1,78.2 463.1,78.4C465.0,78.6 467.0,81.4 468.9,81.7C470.9,82.0 472.8,80.8 474.7,80.1C476.7,79.4 478.6,77.4 480.6,77.6C482.5,77.8 484.5,58.1 486.4,81.3C488.3,104.5 490.3,186.9 492.2,216.7C494.2,246.4 496.1,272.2 498.1,260.0C500.0,247.8 501.9,173.7 503.9,143.7C505.8,113.7 507.8,90.2 509.7,80.1C511.7,69.9 513.6,82.3 515.5,82.9C517.5,83.6 519.4,85.1 521.4,84.0C523.3,83.0 525.3,76.7 527.2,76.8C529.1,76.9 531.1,83.7 533.0,84.6C535.0,85.4 536.9,82.5 538.9,81.7C540.8,80.9 542.7,80.7 544.7,80.0C546.6,79.2 548.6,77.0 550.5,77.2C552.5,77.4 554.4,77.2 556.3,81.3C558.3,85.4 560.2,102.5 562.2,101.7C564.1,100.9 566.1,79.9 568.0,76.4C569.9,72.9 571.9,79.9 573.8,80.5C575.8,81.1 577.7,79.8 579.7,80.1C581.6,80.3 583.5,82.2 585.5,82.1C587.4,82.0 589.4,79.8 591.3,79.7C593.3,79.5 595.2,80.2 597.1,81.3C599.1,82.4 601.0,85.9 603.0,86.1C604.9,86.3 606.9,83.5 608.8,82.5C610.7,81.6 612.7,81.3 614.6,80.5C616.6,79.7 618.5,77.9 620.5,77.6C622.4,77.4 624.3,78.9 626.3,79.0C628.2,79.0 630.2,78.5 632.1,78.0C634.1,77.5 636.0,75.8 637.9,76.0C639.9,76.2 641.8,77.8 643.8,79.3C645.7,80.8 647.7,86.2 649.6,85.0C651.5,83.7 653.5,72.8 655.4,71.8C657.4,70.8 659.3,73.7 661.3,78.8C663.2,84.0 665.1,102.4 667.1,102.5C669.0,102.6 671.0,82.2 672.9,79.3C674.9,76.3 676.8,84.2 678.7,84.6C680.7,84.9 682.6,81.8 684.6,81.5C686.5,81.2 688.5,82.6 690.4,82.5C692.3,82.4 694.3,75.3 696.2,80.9C698.2,86.5 700.1,115.9 702.1,116.0C704.0,116.1 705.9,86.9 707.9,81.5C709.8,76.1 711.8,82.4 713.7,83.3C715.7,84.3 717.6,87.6 719.5,87.4C721.5,87.3 723.4,83.7 725.4,82.5C727.3,81.3 729.3,55.7 731.2,80.1C733.1,104.5 735.1,199.6 737.0,228.9C739.0,258.2 740.9,250.8 742.9,255.9C744.8,261.0 746.7,258.9 748.7,259.6C750.6,260.3 752.6,259.9 754.5,260.0C756.5,260.1 758.4,260.4 760.3,260.0C762.3,259.6 764.2,257.5 766.2,257.4C768.1,257.4 770.1,259.5 772.0,259.6C773.9,259.7 775.9,258.4 777.8,258.0C779.8,257.6 781.7,257.5 783.7,257.1C785.6,256.8 787.5,256.1 789.5,255.9C791.4,255.7 793.4,255.8 795.3,255.9C797.3,256.1 799.2,256.7 801.1,256.7C803.1,256.8 805.0,256.3 807.0,256.3C808.9,256.4 810.9,257.2 812.8,257.1C814.7,257.1 816.7,256.1 818.6,255.9C820.6,255.8 822.5,256.1 824.5,256.3C826.4,256.6 828.3,257.3 830.3,257.6C832.2,257.8 834.2,257.8 836.1,258.0C838.1,258.2 840.0,258.4 841.9,258.8C843.9,259.1 845.8,260.5 847.8,260.0C849.7,259.5 851.7,256.7 853.6,255.9C855.5,255.2 857.5,255.5 859.4,255.5C861.4,255.5 863.3,255.6 865.3,255.9C867.2,256.3 870.1,257.3 871.1,257.6L871.1,260.0 L60.9,260.0 Z" fill="url(#fade)"/><path d="M60.9,81.7C61.9,80.8 64.8,75.6 66.7,76.0C68.7,76.4 70.6,83.5 72.6,84.2C74.5,84.8 76.5,81.4 78.4,80.1C80.3,78.8 82.3,76.3 84.2,76.4C86.2,76.5 88.1,80.5 90.1,80.5C92.0,80.5 93.9,70.8 95.9,76.4C97.8,82.0 99.8,106.7 101.7,113.9C103.7,121.1 105.6,117.2 107.5,119.6C109.5,122.1 111.4,135.4 113.4,128.4C115.3,121.5 117.3,85.1 119.2,78.0C121.1,70.9 123.1,86.1 125.0,85.8C127.0,85.5 128.9,78.6 130.9,76.4C132.8,74.2 134.7,71.9 136.7,72.8C138.6,73.8 140.6,80.7 142.5,82.1C144.5,83.5 146.4,82.0 148.3,81.3C150.3,80.6 152.2,77.4 154.2,78.0C156.1,78.6 158.1,84.9 160.0,85.0C161.9,85.0 163.9,49.4 165.8,78.4C167.8,107.5 169.7,228.9 171.7,259.2C173.6,289.4 175.5,260.1 177.5,260.0C179.4,259.9 181.4,261.1 183.3,258.8C185.3,256.5 187.2,275.8 189.1,246.1C191.1,216.4 193.0,105.2 195.0,80.5C196.9,55.8 198.9,94.2 200.8,98.0C202.7,101.8 204.7,106.8 206.6,103.3C208.6,99.9 210.5,77.1 212.5,77.2C214.4,77.3 216.3,100.1 218.3,103.9C220.2,107.8 222.2,104.0 224.1,100.5C226.1,97.0 228.0,86.2 229.9,82.9C231.9,79.7 233.8,69.7 235.8,80.9C237.7,92.1 239.7,137.7 241.6,150.2C243.5,162.8 245.5,168.4 247.4,156.5C249.4,144.5 251.3,90.8 253.3,78.4C255.2,66.1 257.1,81.4 259.1,82.5C261.0,83.7 263.0,85.7 264.9,85.4C266.9,85.0 268.8,81.6 270.7,80.5C272.7,79.3 274.6,78.8 276.6,78.4C278.5,78.0 280.5,77.9 282.4,78.0C284.3,78.2 286.3,79.4 288.2,79.3C290.2,79.1 292.1,78.1 294.1,77.2C296.0,76.3 297.9,73.4 299.9,73.8C301.8,74.3 303.8,74.1 305.7,80.1C307.7,86.0 309.6,109.6 311.5,109.4C313.5,109.3 315.4,83.3 317.4,79.3C319.3,75.2 321.3,81.1 323.2,85.4C325.1,89.7 327.1,106.2 329.0,105.0C331.0,103.7 332.9,81.9 334.9,78.0C336.8,74.2 338.7,82.0 340.7,81.7C342.6,81.4 344.6,76.3 346.5,76.0C348.5,75.7 350.4,79.6 352.3,80.1C354.3,80.6 356.2,79.4 358.2,79.0C360.1,78.5 362.1,77.8 364.0,77.6C365.9,77.4 367.9,64.0 369.8,77.6C371.8,91.2 373.7,158.5 375.7,159.2C377.6,160.0 379.5,95.9 381.5,82.0C383.4,68.1 385.4,77.1 387.3,75.6C389.3,74.1 391.2,72.6 393.1,73.1C395.1,73.7 397.0,78.8 399.0,78.8C400.9,78.8 402.9,74.3 404.8,73.1C406.7,72.0 408.7,72.4 410.6,71.8C412.6,71.3 414.5,65.5 416.5,69.9C418.4,74.2 420.3,90.8 422.3,98.0C424.2,105.2 426.2,116.5 428.1,113.1C430.1,109.8 432.0,78.8 433.9,78.0C435.9,77.3 437.8,108.6 439.8,108.5C441.7,108.5 443.7,73.1 445.6,77.6C447.5,82.2 449.5,135.5 451.4,136.0C453.4,136.4 455.3,90.1 457.3,80.5C459.2,70.9 461.1,78.2 463.1,78.4C465.0,78.6 467.0,81.4 468.9,81.7C470.9,82.0 472.8,80.8 474.7,80.1C476.7,79.4 478.6,77.4 480.6,77.6C482.5,77.8 484.5,58.1 486.4,81.3C488.3,104.5 490.3,186.9 492.2,216.7C494.2,246.4 496.1,272.2 498.1,260.0C500.0,247.8 501.9,173.7 503.9,143.7C505.8,113.7 507.8,90.2 509.7,80.1C511.7,69.9 513.6,82.3 515.5,82.9C517.5,83.6 519.4,85.1 521.4,84.0C523.3,83.0 525.3,76.7 527.2,76.8C529.1,76.9 531.1,83.7 533.0,84.6C535.0,85.4 536.9,82.5 538.9,81.7C540.8,80.9 542.7,80.7 544.7,80.0C546.6,79.2 548.6,77.0 550.5,77.2C552.5,77.4 554.4,77.2 556.3,81.3C558.3,85.4 560.2,102.5 562.2,101.7C564.1,100.9 566.1,79.9 568.0,76.4C569.9,72.9 571.9,79.9 573.8,80.5C575.8,81.1 577.7,79.8 579.7,80.1C581.6,80.3 583.5,82.2 585.5,82.1C587.4,82.0 589.4,79.8 591.3,79.7C593.3,79.5 595.2,80.2 597.1,81.3C599.1,82.4 601.0,85.9 603.0,86.1C604.9,86.3 606.9,83.5 608.8,82.5C610.7,81.6 612.7,81.3 614.6,80.5C616.6,79.7 618.5,77.9 620.5,77.6C622.4,77.4 624.3,78.9 626.3,79.0C628.2,79.0 630.2,78.5 632.1,78.0C634.1,77.5 636.0,75.8 637.9,76.0C639.9,76.2 641.8,77.8 643.8,79.3C645.7,80.8 647.7,86.2 649.6,85.0C651.5,83.7 653.5,72.8 655.4,71.8C657.4,70.8 659.3,73.7 661.3,78.8C663.2,84.0 665.1,102.4 667.1,102.5C669.0,102.6 671.0,82.2 672.9,79.3C674.9,76.3 676.8,84.2 678.7,84.6C680.7,84.9 682.6,81.8 684.6,81.5C686.5,81.2 688.5,82.6 690.4,82.5C692.3,82.4 694.3,75.3 696.2,80.9C698.2,86.5 700.1,115.9 702.1,116.0C704.0,116.1 705.9,86.9 707.9,81.5C709.8,76.1 711.8,82.4 713.7,83.3C715.7,84.3 717.6,87.6 719.5,87.4C721.5,87.3 723.4,83.7 725.4,82.5C727.3,81.3 729.3,55.7 731.2,80.1C733.1,104.5 735.1,199.6 737.0,228.9C739.0,258.2 740.9,250.8 742.9,255.9C744.8,261.0 746.7,258.9 748.7,259.6C750.6,260.3 752.6,259.9 754.5,260.0C756.5,260.1 758.4,260.4 760.3,260.0C762.3,259.6 764.2,257.5 766.2,257.4C768.1,257.4 770.1,259.5 772.0,259.6C773.9,259.7 775.9,258.4 777.8,258.0C779.8,257.6 781.7,257.5 783.7,257.1C785.6,256.8 787.5,256.1 789.5,255.9C791.4,255.7 793.4,255.8 795.3,255.9C797.3,256.1 799.2,256.7 801.1,256.7C803.1,256.8 805.0,256.3 807.0,256.3C808.9,256.4 810.9,257.2 812.8,257.1C814.7,257.1 816.7,256.1 818.6,255.9C820.6,255.8 822.5,256.1 824.5,256.3C826.4,256.6 828.3,257.3 830.3,257.6C832.2,257.8 834.2,257.8 836.1,258.0C838.1,258.2 840.0,258.4 841.9,258.8C843.9,259.1 845.8,260.5 847.8,260.0C849.7,259.5 851.7,256.7 853.6,255.9C855.5,255.2 857.5,255.5 859.4,255.5C861.4,255.5 863.3,255.6 865.3,255.9C867.2,256.3 870.1,257.3 871.1,257.6L871.1,260.0 L60.9,260.0 Z" fill="url(#dots)"/><path d="M60.9,81.7C61.9,80.8 64.8,75.6 66.7,76.0C68.7,76.4 70.6,83.5 72.6,84.2C74.5,84.8 76.5,81.4 78.4,80.1C80.3,78.8 82.3,76.3 84.2,76.4C86.2,76.5 88.1,80.5 90.1,80.5C92.0,80.5 93.9,70.8 95.9,76.4C97.8,82.0 99.8,106.7 101.7,113.9C103.7,121.1 105.6,117.2 107.5,119.6C109.5,122.1 111.4,135.4 113.4,128.4C115.3,121.5 117.3,85.1 119.2,78.0C121.1,70.9 123.1,86.1 125.0,85.8C127.0,85.5 128.9,78.6 130.9,76.4C132.8,74.2 134.7,71.9 136.7,72.8C138.6,73.8 140.6,80.7 142.5,82.1C144.5,83.5 146.4,82.0 148.3,81.3C150.3,80.6 152.2,77.4 154.2,78.0C156.1,78.6 158.1,84.9 160.0,85.0C161.9,85.0 163.9,49.4 165.8,78.4C167.8,107.5 169.7,228.9 171.7,259.2C173.6,289.4 175.5,260.1 177.5,260.0C179.4,259.9 181.4,261.1 183.3,258.8C185.3,256.5 187.2,275.8 189.1,246.1C191.1,216.4 193.0,105.2 195.0,80.5C196.9,55.8 198.9,94.2 200.8,98.0C202.7,101.8 204.7,106.8 206.6,103.3C208.6,99.9 210.5,77.1 212.5,77.2C214.4,77.3 216.3,100.1 218.3,103.9C220.2,107.8 222.2,104.0 224.1,100.5C226.1,97.0 228.0,86.2 229.9,82.9C231.9,79.7 233.8,69.7 235.8,80.9C237.7,92.1 239.7,137.7 241.6,150.2C243.5,162.8 245.5,168.4 247.4,156.5C249.4,144.5 251.3,90.8 253.3,78.4C255.2,66.1 257.1,81.4 259.1,82.5C261.0,83.7 263.0,85.7 264.9,85.4C266.9,85.0 268.8,81.6 270.7,80.5C272.7,79.3 274.6,78.8 276.6,78.4C278.5,78.0 280.5,77.9 282.4,78.0C284.3,78.2 286.3,79.4 288.2,79.3C290.2,79.1 292.1,78.1 294.1,77.2C296.0,76.3 297.9,73.4 299.9,73.8C301.8,74.3 303.8,74.1 305.7,80.1C307.7,86.0 309.6,109.6 311.5,109.4C313.5,109.3 315.4,83.3 317.4,79.3C319.3,75.2 321.3,81.1 323.2,85.4C325.1,89.7 327.1,106.2 329.0,105.0C331.0,103.7 332.9,81.9 334.9,78.0C336.8,74.2 338.7,82.0 340.7,81.7C342.6,81.4 344.6,76.3 346.5,76.0C348.5,75.7 350.4,79.6 352.3,80.1C354.3,80.6 356.2,79.4 358.2,79.0C360.1,78.5 362.1,77.8 364.0,77.6C365.9,77.4 367.9,64.0 369.8,77.6C371.8,91.2 373.7,158.5 375.7,159.2C377.6,160.0 379.5,95.9 381.5,82.0C383.4,68.1 385.4,77.1 387.3,75.6C389.3,74.1 391.2,72.6 393.1,73.1C395.1,73.7 397.0,78.8 399.0,78.8C400.9,78.8 402.9,74.3 404.8,73.1C406.7,72.0 408.7,72.4 410.6,71.8C412.6,71.3 414.5,65.5 416.5,69.9C418.4,74.2 420.3,90.8 422.3,98.0C424.2,105.2 426.2,116.5 428.1,113.1C430.1,109.8 432.0,78.8 433.9,78.0C435.9,77.3 437.8,108.6 439.8,108.5C441.7,108.5 443.7,73.1 445.6,77.6C447.5,82.2 449.5,135.5 451.4,136.0C453.4,136.4 455.3,90.1 457.3,80.5C459.2,70.9 461.1,78.2 463.1,78.4C465.0,78.6 467.0,81.4 468.9,81.7C470.9,82.0 472.8,80.8 474.7,80.1C476.7,79.4 478.6,77.4 480.6,77.6C482.5,77.8 484.5,58.1 486.4,81.3C488.3,104.5 490.3,186.9 492.2,216.7C494.2,246.4 496.1,272.2 498.1,260.0C500.0,247.8 501.9,173.7 503.9,143.7C505.8,113.7 507.8,90.2 509.7,80.1C511.7,69.9 513.6,82.3 515.5,82.9C517.5,83.6 519.4,85.1 521.4,84.0C523.3,83.0 525.3,76.7 527.2,76.8C529.1,76.9 531.1,83.7 533.0,84.6C535.0,85.4 536.9,82.5 538.9,81.7C540.8,80.9 542.7,80.7 544.7,80.0C546.6,79.2 548.6,77.0 550.5,77.2C552.5,77.4 554.4,77.2 556.3,81.3C558.3,85.4 560.2,102.5 562.2,101.7C564.1,100.9 566.1,79.9 568.0,76.4C569.9,72.9 571.9,79.9 573.8,80.5C575.8,81.1 577.7,79.8 579.7,80.1C581.6,80.3 583.5,82.2 585.5,82.1C587.4,82.0 589.4,79.8 591.3,79.7C593.3,79.5 595.2,80.2 597.1,81.3C599.1,82.4 601.0,85.9 603.0,86.1C604.9,86.3 606.9,83.5 608.8,82.5C610.7,81.6 612.7,81.3 614.6,80.5C616.6,79.7 618.5,77.9 620.5,77.6C622.4,77.4 624.3,78.9 626.3,79.0C628.2,79.0 630.2,78.5 632.1,78.0C634.1,77.5 636.0,75.8 637.9,76.0C639.9,76.2 641.8,77.8 643.8,79.3C645.7,80.8 647.7,86.2 649.6,85.0C651.5,83.7 653.5,72.8 655.4,71.8C657.4,70.8 659.3,73.7 661.3,78.8C663.2,84.0 665.1,102.4 667.1,102.5C669.0,102.6 671.0,82.2 672.9,79.3C674.9,76.3 676.8,84.2 678.7,84.6C680.7,84.9 682.6,81.8 684.6,81.5C686.5,81.2 688.5,82.6 690.4,82.5C692.3,82.4 694.3,75.3 696.2,80.9C698.2,86.5 700.1,115.9 702.1,116.0C704.0,116.1 705.9,86.9 707.9,81.5C709.8,76.1 711.8,82.4 713.7,83.3C715.7,84.3 717.6,87.6 719.5,87.4C721.5,87.3 723.4,83.7 725.4,82.5C727.3,81.3 729.3,55.7 731.2,80.1C733.1,104.5 735.1,199.6 737.0,228.9C739.0,258.2 740.9,250.8 742.9,255.9C744.8,261.0 746.7,258.9 748.7,259.6C750.6,260.3 752.6,259.9 754.5,260.0C756.5,260.1 758.4,260.4 760.3,260.0C762.3,259.6 764.2,257.5 766.2,257.4C768.1,257.4 770.1,259.5 772.0,259.6C773.9,259.7 775.9,258.4 777.8,258.0C779.8,257.6 781.7,257.5 783.7,257.1C785.6,256.8 787.5,256.1 789.5,255.9C791.4,255.7 793.4,255.8 795.3,255.9C797.3,256.1 799.2,256.7 801.1,256.7C803.1,256.8 805.0,256.3 807.0,256.3C808.9,256.4 810.9,257.2 812.8,257.1C814.7,257.1 816.7,256.1 818.6,255.9C820.6,255.8 822.5,256.1 824.5,256.3C826.4,256.6 828.3,257.3 830.3,257.6C832.2,257.8 834.2,257.8 836.1,258.0C838.1,258.2 840.0,258.4 841.9,258.8C843.9,259.1 845.8,260.5 847.8,260.0C849.7,259.5 851.7,256.7 853.6,255.9C855.5,255.2 857.5,255.5 859.4,255.5C861.4,255.5 863.3,255.6 865.3,255.9C867.2,256.3 870.1,257.3 871.1,257.6" fill="none" stroke="#FF4655" stroke-width="2.6" stroke-linejoin="round" stroke-linecap="round"/></svg>