<svg xmlns="http://www.w3.org/2000/svg" width="263" height="46" viewBox="0 0 263 46"><path d="M0,0 H263 V37 L254,46 H0 Z" fill="#FF4655"></path><line x1="32" y1="15" x2="32" y2="26" stroke="#F7F2EC" stroke-width="2.4" stroke-linecap="square"></line><polyline points="27.5,22 32,27.5 36.5,22" fill="none" stroke="#F7F2EC" stroke-width="2.4" stroke-linecap="square"></polyline><line x1="26" y1="31.5" x2="38" y2="31.5" stroke="#F7F2EC" stroke-width="2.4" stroke-linecap="square"></line><polyline points="53.0,16.3 58.7,16.3 61.6,18.7 61.6,27.3 58.7,29.8 53.0,29.8 53.0,16.3" fill="none" stroke="#F7F2EC" stroke-width="2.57" stroke-linecap="square" stroke-linejoin="round"></polyline><polyline points="68.3,16.3 72.1,16.3 74.8,18.4 74.8,27.6 72.1,29.8 68.3,29.8 65.6,27.6 65.6,18.4 68.3,16.3" fill="none" stroke="#F7F2EC" stroke-width="2.57" stroke-linecap="square" stroke-linejoin="round"></polyline><polyline points="78.8,16.3 81.5,29.8 85.0,20.3 88.5,29.8 91.2,16.3" fill="none" stroke="#F7F2EC" stroke-width="2.57" stroke-linecap="square" stroke-linejoin="round"></polyline><polyline points="95.2,29.8 95.2,16.3 103.9,29.8 103.9,16.3" fill="none" stroke="#F7F2EC" stroke-width="2.57" stroke-linecap="square" stroke-linejoin="round"></polyline><polyline points="107.9,16.3 107.9,29.8 114.9,29.8" fill="none" stroke="#F7F2EC" stroke-width="2.57" stroke-linecap="square" stroke-linejoin="round"></polyline><polyline points="121.6,16.3 125.4,16.3 128.1,18.4 128.1,27.6 125.4,29.8 121.6,29.8 118.9,27.6 118.9,18.4 121.6,16.3" fill="none" stroke="#F7F2EC" stroke-width="2.57" stroke-linecap="square" stroke-linejoin="round"></polyline><polyline points="132.1,29.8 136.8,16.3 141.5,29.8" fill="none" stroke="#F7F2EC" stroke-width="2.57" stroke-linecap="square" stroke-linejoin="round"></polyline><polyline points="133.8,25.4 139.8,25.4" fill="none" stroke="#F7F2EC" stroke-width="2.57" stroke-linecap="square" stroke-linejoin="round"></polyline><polyline points="145.5,16.3 151.2,16.3 154.2,18.7 154.2,27.3 151.2,29.8 145.5,29.8 145.5,16.3" fill="none" stroke="#F7F2EC" stroke-width="2.57" stroke-linecap="square" stroke-linejoin="round"></polyline><polyline points="168.1,16.3 168.1,29.8 175.1,29.8" fill="none" stroke="#F7F2EC" stroke-width="2.57" stroke-linecap="square" stroke-linejoin="round"></polyline><polyline points="179.1,29.8 183.9,16.3 188.6,29.8" fill="none" stroke="#F7F2EC" stroke-width="2.57" stroke-linecap="square" stroke-linejoin="round"></polyline><polyline points="180.9,25.4 186.8,25.4" fill="none" stroke="#F7F2EC" stroke-width="2.57" stroke-linecap="square" stroke-linejoin="round"></polyline><polyline points="192.6,16.3 200.7,16.3" fill="none" stroke="#F7F2EC" stroke-width="2.57" stroke-linecap="square" stroke-linejoin="round"></polyline><polyline points="196.6,16.3 196.6,29.8" fill="none" stroke="#F7F2EC" stroke-width="2.57" stroke-linecap="square" stroke-linejoin="round"></polyline><polyline points="212.2,16.3 204.7,16.3 204.7,29.8 212.2,29.8" fill="none" stroke="#F7F2EC" stroke-width="2.57" stroke-linecap="square" stroke-linejoin="round"></polyline><polyline points="204.7,22.7 210.6,22.7" fill="none" stroke="#F7F2EC" stroke-width="2.57" stroke-linecap="square" stroke-linejoin="round"></polyline><polyline points="224.1,17.9 222.4,16.3 218.1,16.3 216.5,17.7 216.5,21.4 218.0,22.7 222.3,23.3 223.8,24.6 223.8,28.3 222.2,29.8 217.9,29.8 216.2,28.1" fill="none" stroke="#F7F2EC" stroke-width="2.57" stroke-linecap="square" stroke-linejoin="round"></polyline><polyline points="228.1,16.3 236.2,16.3" fill="none" stroke="#F7F2EC" stroke-width="2.57" stroke-linecap="square" stroke-linejoin="round"></polyline><polyline points="232.1,16.3 232.1,29.8" fill="none" stroke="#F7F2EC" stroke-width="2.57" stroke-linecap="square" stroke-linejoin="round"></polyline></svg>