<svg xmlns="http://www.w3.org/2000/svg" width="189" height="46" viewBox="0 0 189 46"><path d="M0,0 H189 V37 L180,46 H0 Z" fill="none" stroke="#828994" stroke-width="2.5"></path><polyline points="26.0,29.8 30.7,16.3 35.5,29.8" fill="none" stroke="#828994" stroke-width="2.57" stroke-linecap="square" stroke-linejoin="round"></polyline><polyline points="27.8,25.4 33.7,25.4" fill="none" stroke="#828994" stroke-width="2.57" stroke-linecap="square" stroke-linejoin="round"></polyline><polyline points="39.5,16.3 39.5,29.8 46.5,29.8" fill="none" stroke="#828994" stroke-width="2.57" stroke-linecap="square" stroke-linejoin="round"></polyline><polyline points="50.5,16.3 50.5,29.8 57.5,29.8" fill="none" stroke="#828994" stroke-width="2.57" stroke-linecap="square" stroke-linejoin="round"></polyline><polyline points="71.4,29.8 71.4,16.3 77.4,16.3 79.3,17.9 79.3,21.6 77.4,23.3 71.4,23.3" fill="none" stroke="#828994" stroke-width="2.57" stroke-linecap="square" stroke-linejoin="round"></polyline><polyline points="75.2,23.3 79.5,29.8" fill="none" stroke="#828994" stroke-width="2.57" stroke-linecap="square" stroke-linejoin="round"></polyline><polyline points="91.1,16.3 83.5,16.3 83.5,29.8 91.1,29.8" fill="none" stroke="#828994" stroke-width="2.57" stroke-linecap="square" stroke-linejoin="round"></polyline><polyline points="83.5,22.7 89.5,22.7" fill="none" stroke="#828994" stroke-width="2.57" stroke-linecap="square" stroke-linejoin="round"></polyline><polyline points="95.1,16.3 95.1,29.8 102.1,29.8" fill="none" stroke="#828994" stroke-width="2.57" stroke-linecap="square" stroke-linejoin="round"></polyline><polyline points="113.7,16.3 106.1,16.3 106.1,29.8 113.7,29.8" fill="none" stroke="#828994" stroke-width="2.57" stroke-linecap="square" stroke-linejoin="round"></polyline><polyline points="106.1,22.7 112.0,22.7" fill="none" stroke="#828994" stroke-width="2.57" stroke-linecap="square" stroke-linejoin="round"></polyline><polyline points="117.7,29.8 122.4,16.3 127.1,29.8" fill="none" stroke="#828994" stroke-width="2.57" stroke-linecap="square" stroke-linejoin="round"></polyline><polyline points="119.4,25.4 125.4,25.4" fill="none" stroke="#828994" stroke-width="2.57" stroke-linecap="square" stroke-linejoin="round"></polyline><polyline points="139.0,17.9 137.3,16.3 133.0,16.3 131.4,17.7 131.4,21.4 132.9,22.7 137.2,23.3 138.7,24.6 138.7,28.3 137.1,29.8 132.7,29.8 131.1,28.1" fill="none" stroke="#828994" stroke-width="2.57" stroke-linecap="square" stroke-linejoin="round"></polyline><polyline points="150.5,16.3 143.0,16.3 143.0,29.8 150.5,29.8" fill="none" stroke="#828994" stroke-width="2.57" stroke-linecap="square" stroke-linejoin="round"></polyline><polyline points="143.0,22.7 148.9,22.7" fill="none" stroke="#828994" stroke-width="2.57" stroke-linecap="square" stroke-linejoin="round"></polyline><polyline points="162.3,17.9 160.7,16.3 156.4,16.3 154.8,17.7 154.8,21.4 156.3,22.7 160.6,23.3 162.1,24.6 162.1,28.3 160.5,29.8 156.1,29.8 154.5,28.1" fill="none" stroke="#828994" stroke-width="2.57" stroke-linecap="square" stroke-linejoin="round"></polyline></svg>