<svg xmlns="http://www.w3.org/2000/svg" width="860" height="240" viewBox="0 0 860 240"><path d="M17.5,1.5 H858.5 V222.5 L842.5,238.5 H1.5 V17.5 Z" fill="#F8F6F2" stroke="#DFDAD1" stroke-width="2"></path><line x1="71.66666666666667" y1="1.5" x2="71.66666666666667" y2="7.5" stroke="#D8D3C9" stroke-width="1.5"></line><line x1="71.66666666666667" y1="238.5" x2="71.66666666666667" y2="232.5" stroke="#D8D3C9" stroke-width="1.5"></line><line x1="143.33333333333334" y1="1.5" x2="143.33333333333334" y2="7.5" stroke="#D8D3C9" stroke-width="1.5"></line><line x1="143.33333333333334" y1="238.5" x2="143.33333333333334" y2="232.5" stroke="#D8D3C9" stroke-width="1.5"></line><line x1="215" y1="1.5" x2="215" y2="7.5" stroke="#D8D3C9" stroke-width="1.5"></line><line x1="215" y1="238.5" x2="215" y2="232.5" stroke="#D8D3C9" stroke-width="1.5"></line><line x1="286.6666666666667" y1="1.5" x2="286.6666666666667" y2="7.5" stroke="#D8D3C9" stroke-width="1.5"></line><line x1="286.6666666666667" y1="238.5" x2="286.6666666666667" y2="232.5" stroke="#D8D3C9" stroke-width="1.5"></line><line x1="358.33333333333337" y1="1.5" x2="358.33333333333337" y2="7.5" stroke="#D8D3C9" stroke-width="1.5"></line><line x1="358.33333333333337" y1="238.5" x2="358.33333333333337" y2="232.5" stroke="#D8D3C9" stroke-width="1.5"></line><line x1="430" y1="1.5" x2="430" y2="7.5" stroke="#D8D3C9" stroke-width="1.5"></line><line x1="430" y1="238.5" x2="430" y2="232.5" stroke="#D8D3C9" stroke-width="1.5"></line><line x1="501.6666666666667" y1="1.5" x2="501.6666666666667" y2="7.5" stroke="#D8D3C9" stroke-width="1.5"></line><line x1="501.6666666666667" y1="238.5" x2="501.6666666666667" y2="232.5" stroke="#D8D3C9" stroke-width="1.5"></line><line x1="573.3333333333334" y1="1.5" x2="573.3333333333334" y2="7.5" stroke="#D8D3C9" stroke-width="1.5"></line><line x1="573.3333333333334" y1="238.5" x2="573.3333333333334" y2="232.5" stroke="#D8D3C9" stroke-width="1.5"></line><line x1="645" y1="1.5" x2="645" y2="7.5" stroke="#D8D3C9" stroke-width="1.5"></line><line x1="645" y1="238.5" x2="645" y2="232.5" stroke="#D8D3C9" stroke-width="1.5"></line><line x1="716.6666666666667" y1="1.5" x2="716.6666666666667" y2="7.5" stroke="#D8D3C9" stroke-width="1.5"></line><line x1="716.6666666666667" y1="238.5" x2="716.6666666666667" y2="232.5" stroke="#D8D3C9" stroke-width="1.5"></line><line x1="788.3333333333334" y1="1.5" x2="788.3333333333334" y2="7.5" stroke="#D8D3C9" stroke-width="1.5"></line><line x1="788.3333333333334" y1="238.5" x2="788.3333333333334" y2="232.5" stroke="#D8D3C9" stroke-width="1.5"></line><line x1="241.5" y1="113.4" x2="257.7" y2="129.6" stroke="#FF4655" stroke-width="7" stroke-linecap="square"></line><line x1="241.5" y1="89.4" x2="257.7" y2="73.2" stroke="#FF4655" stroke-width="7" stroke-linecap="square"></line><line x1="217.5" y1="113.4" x2="201.3" y2="129.6" stroke="#FF4655" stroke-width="7" stroke-linecap="square"></line><line x1="217.5" y1="89.4" x2="201.3" y2="73.2" stroke="#FF4655" stroke-width="7" stroke-linecap="square"></line><rect x="224.1" y="95.9" width="10.9" height="10.9" fill="#FF4655" transform="rotate(45 229.53 101.39999999999998)"></rect><polygon points="291.5,140.4 326.4,62.4 339.9,62.4 339.9,116.2 361.5,62.4 376.5,62.4 376.5,140.4 361.5,140.4 361.5,99.9 345.3,140.4 324.8,140.4 324.8,99.6 306.6,140.4" fill="#1C1E23"></polygon><polygon points="389.0,62.4 431.1,62.4 426.5,78.0 405.4,78.0 405.4,93.6 424.9,93.6 420.2,109.2 405.4,109.2 405.4,124.8 431.1,124.8 431.1,140.4 389.0,140.4" fill="#1C1E23"></polygon><polygon points="443.6,140.4 443.6,62.4 460.0,62.4 478.7,106.1 478.7,62.4 495.1,62.4 495.1,140.4 478.7,140.4 460.0,96.7 460.0,140.4" fill="#1C1E23"></polygon><polygon points="507.6,62.4 552.8,62.4 548.2,78.0 538.0,78.0 538.0,140.4 522.4,140.4 522.4,78.0 507.6,78.0" fill="#1C1E23"></polygon><polygon points="557.5,140.4 576.2,62.4 590.3,62.4 609.0,140.4 592.6,140.4 583.3,96.7 573.9,140.4" fill="#1C1E23"></polygon><polygon points="621.5,62.4 637.9,62.4 637.9,124.8 660.5,124.8 660.5,134.2 654.2,140.4 621.5,140.4" fill="#1C1E23"></polygon><line x1="187.94000000000003" y1="179.93999999999997" x2="235.94000000000003" y2="179.93999999999997" stroke="#D8D3C9" stroke-width="1.5"></line><line x1="624.06" y1="179.93999999999997" x2="672.06" y2="179.93999999999997" stroke="#D8D3C9" stroke-width="1.5"></line><polyline points="255.9,185.4 260.5,172.4 265.0,185.4" fill="none" stroke="#6E7580" stroke-width="1.82" stroke-linecap="square" stroke-linejoin="round"></polyline><polyline points="257.6,181.2 263.4,181.2" fill="none" stroke="#6E7580" stroke-width="1.82" stroke-linecap="square" stroke-linejoin="round"></polyline><polyline points="278.6,174.0 277.0,172.4 272.9,172.4 271.3,173.8 271.3,177.3 272.7,178.6 276.9,179.2 278.3,180.5 278.3,184.0 276.8,185.4 272.6,185.4 271.0,183.8" fill="none" stroke="#6E7580" stroke-width="1.82" stroke-linecap="square" stroke-linejoin="round"></polyline><polyline points="284.6,172.4 288.6,178.4 292.6,172.4" fill="none" stroke="#6E7580" stroke-width="1.82" stroke-linecap="square" stroke-linejoin="round"></polyline><polyline points="288.6,178.4 288.6,185.4" fill="none" stroke="#6E7580" stroke-width="1.82" stroke-linecap="square" stroke-linejoin="round"></polyline><polyline points="298.6,185.4 298.6,172.4 307.0,185.4 307.0,172.4" fill="none" stroke="#6E7580" stroke-width="1.82" stroke-linecap="square" stroke-linejoin="round"></polyline><polyline points="321.3,174.1 319.6,172.4 314.9,172.4 313.0,174.2 313.0,183.6 314.9,185.4 319.6,185.4 321.3,183.7" fill="none" stroke="#6E7580" stroke-width="1.82" stroke-linecap="square" stroke-linejoin="round"></polyline><polyline points="339.0,185.4 339.0,172.4 344.7,172.4 346.5,174.0 346.5,177.6 344.7,179.2 339.0,179.2" fill="none" stroke="#6E7580" stroke-width="1.82" stroke-linecap="square" stroke-linejoin="round"></polyline><polyline points="352.5,172.4 356.8,185.4 361.1,172.4" fill="none" stroke="#6E7580" stroke-width="1.82" stroke-linecap="square" stroke-linejoin="round"></polyline><polyline points="367.1,185.4 367.1,172.4 372.8,172.4 374.7,174.0 374.7,177.6 372.8,179.2 367.1,179.2" fill="none" stroke="#6E7580" stroke-width="1.82" stroke-linecap="square" stroke-linejoin="round"></polyline><polyline points="400.4,179.2 395.5,184.9 393.7,184.9 392.6,183.8 392.6,182.0 398.4,176.6 398.4,174.0 397.1,172.4 395.0,172.4 393.7,173.7 393.7,175.8 400.7,184.9" fill="none" stroke="#6E7580" stroke-width="1.82" stroke-linecap="square" stroke-linejoin="round"></polyline><polyline points="427.0,174.1 425.3,172.4 420.6,172.4 418.7,174.2 418.7,183.6 420.6,185.4 425.3,185.4 427.0,183.7" fill="none" stroke="#6E7580" stroke-width="1.82" stroke-linecap="square" stroke-linejoin="round"></polyline><polyline points="433.0,172.4 433.0,185.4 439.8,185.4" fill="none" stroke="#6E7580" stroke-width="1.82" stroke-linecap="square" stroke-linejoin="round"></polyline><polyline points="445.8,185.4 450.3,172.4 454.9,185.4" fill="none" stroke="#6E7580" stroke-width="1.82" stroke-linecap="square" stroke-linejoin="round"></polyline><polyline points="447.5,181.2 453.2,181.2" fill="none" stroke="#6E7580" stroke-width="1.82" stroke-linecap="square" stroke-linejoin="round"></polyline><polyline points="468.4,174.0 466.8,172.4 462.7,172.4 461.1,173.8 461.1,177.3 462.6,178.6 466.7,179.2 468.1,180.5 468.1,184.0 466.6,185.4 462.4,185.4 460.9,183.8" fill="none" stroke="#6E7580" stroke-width="1.82" stroke-linecap="square" stroke-linejoin="round"></polyline><polyline points="481.9,174.0 480.4,172.4 476.2,172.4 474.7,173.8 474.7,177.3 476.1,178.6 480.3,179.2 481.7,180.5 481.7,184.0 480.1,185.4 476.0,185.4 474.4,183.8" fill="none" stroke="#6E7580" stroke-width="1.82" stroke-linecap="square" stroke-linejoin="round"></polyline><polyline points="488.9,172.4 488.9,185.4" fill="none" stroke="#6E7580" stroke-width="1.82" stroke-linecap="square" stroke-linejoin="round"></polyline><polyline points="504.1,174.1 502.4,172.4 497.7,172.4 495.8,174.2 495.8,183.6 497.7,185.4 502.4,185.4 504.1,183.7" fill="none" stroke="#6E7580" stroke-width="1.82" stroke-linecap="square" stroke-linejoin="round"></polyline><polyline points="530.1,174.1 528.4,172.4 523.8,172.4 521.8,174.2 521.8,183.6 523.8,185.4 528.4,185.4 530.1,183.7" fill="none" stroke="#6E7580" stroke-width="1.82" stroke-linecap="square" stroke-linejoin="round"></polyline><polyline points="538.7,172.4 542.4,172.4 545.0,174.5 545.0,183.3 542.4,185.4 538.7,185.4 536.1,183.3 536.1,174.5 538.7,172.4" fill="none" stroke="#6E7580" stroke-width="1.82" stroke-linecap="square" stroke-linejoin="round"></polyline><polyline points="551.0,185.4 551.0,172.4 556.4,179.7 561.9,172.4 561.9,185.4" fill="none" stroke="#6E7580" stroke-width="1.82" stroke-linecap="square" stroke-linejoin="round"></polyline><polyline points="567.9,172.4 567.9,185.4" fill="none" stroke="#6E7580" stroke-width="1.82" stroke-linecap="square" stroke-linejoin="round"></polyline><polyline points="567.9,172.4 573.3,172.4 574.9,173.7 574.9,177.3 573.3,178.6 567.9,178.6" fill="none" stroke="#6E7580" stroke-width="1.82" stroke-linecap="square" stroke-linejoin="round"></polyline><polyline points="573.3,178.6 575.2,179.9 575.2,184.1 573.6,185.4 567.9,185.4" fill="none" stroke="#6E7580" stroke-width="1.82" stroke-linecap="square" stroke-linejoin="round"></polyline><polyline points="581.2,185.4 585.7,172.4 590.3,185.4" fill="none" stroke="#6E7580" stroke-width="1.82" stroke-linecap="square" stroke-linejoin="round"></polyline><polyline points="582.9,181.2 588.6,181.2" fill="none" stroke="#6E7580" stroke-width="1.82" stroke-linecap="square" stroke-linejoin="round"></polyline><polyline points="596.3,172.4 604.1,172.4" fill="none" stroke="#6E7580" stroke-width="1.82" stroke-linecap="square" stroke-linejoin="round"></polyline><polyline points="600.2,172.4 600.2,185.4" fill="none" stroke="#6E7580" stroke-width="1.82" stroke-linecap="square" stroke-linejoin="round"></polyline></svg>