<svg xmlns="http://www.w3.org/2000/svg" width="287" height="54" viewBox="0 0 287 54"><line x1="15.0" y1="31.0" x2="20.4" y2="36.4" stroke="#FF4655" stroke-width="3" stroke-linecap="square"></line><line x1="15.0" y1="23.0" x2="20.4" y2="17.6" stroke="#FF4655" stroke-width="3" stroke-linecap="square"></line><line x1="7.0" y1="31.0" x2="1.6" y2="36.4" stroke="#FF4655" stroke-width="3" stroke-linecap="square"></line><line x1="7.0" y1="23.0" x2="1.6" y2="17.6" stroke="#FF4655" stroke-width="3" stroke-linecap="square"></line><rect x="8.7" y="24.7" width="4.7" height="4.7" fill="#FF4655" transform="rotate(45 11 27)"></rect><polyline points="48.2,17.0 37.0,17.0 37.0,37.0" fill="none" stroke="#FF4655" stroke-width="3.00" stroke-linecap="square" stroke-linejoin="round"></polyline><polyline points="37.0,26.6 45.4,26.6" fill="none" stroke="#FF4655" stroke-width="3.00" stroke-linecap="square" stroke-linejoin="round"></polyline><polyline points="58.4,17.0 64.0,17.0 68.0,20.2 68.0,33.8 64.0,37.0 58.4,37.0 54.4,33.8 54.4,20.2 58.4,17.0" fill="none" stroke="#FF4655" stroke-width="3.00" stroke-linecap="square" stroke-linejoin="round"></polyline><polyline points="74.2,37.0 74.2,17.0 83.0,17.0 85.8,19.4 85.8,25.0 83.0,27.4 74.2,27.4" fill="none" stroke="#FF4655" stroke-width="3.00" stroke-linecap="square" stroke-linejoin="round"></polyline><polyline points="79.8,27.4 86.2,37.0" fill="none" stroke="#FF4655" stroke-width="3.00" stroke-linecap="square" stroke-linejoin="round"></polyline><polyline points="107.4,17.0 115.8,17.0 120.2,20.6 120.2,33.4 115.8,37.0 107.4,37.0 107.4,17.0" fill="none" stroke="#FF4655" stroke-width="3.00" stroke-linecap="square" stroke-linejoin="round"></polyline><polyline points="137.6,17.0 126.4,17.0 126.4,37.0 137.6,37.0" fill="none" stroke="#FF4655" stroke-width="3.00" stroke-linecap="square" stroke-linejoin="round"></polyline><polyline points="126.4,26.6 135.2,26.6" fill="none" stroke="#FF4655" stroke-width="3.00" stroke-linecap="square" stroke-linejoin="round"></polyline><polyline points="143.8,17.0 150.4,37.0 157.0,17.0" fill="none" stroke="#FF4655" stroke-width="3.00" stroke-linecap="square" stroke-linejoin="round"></polyline><polyline points="174.4,17.0 163.2,17.0 163.2,37.0 174.4,37.0" fill="none" stroke="#FF4655" stroke-width="3.00" stroke-linecap="square" stroke-linejoin="round"></polyline><polyline points="163.2,26.6 172.0,26.6" fill="none" stroke="#FF4655" stroke-width="3.00" stroke-linecap="square" stroke-linejoin="round"></polyline><polyline points="180.6,17.0 180.6,37.0 191.0,37.0" fill="none" stroke="#FF4655" stroke-width="3.00" stroke-linecap="square" stroke-linejoin="round"></polyline><polyline points="201.2,17.0 206.8,17.0 210.8,20.2 210.8,33.8 206.8,37.0 201.2,37.0 197.2,33.8 197.2,20.2 201.2,17.0" fill="none" stroke="#FF4655" stroke-width="3.00" stroke-linecap="square" stroke-linejoin="round"></polyline><polyline points="217.0,37.0 217.0,17.0 225.8,17.0 228.6,19.4 228.6,25.0 225.8,27.4 217.0,27.4" fill="none" stroke="#FF4655" stroke-width="3.00" stroke-linecap="square" stroke-linejoin="round"></polyline><polyline points="246.0,17.0 234.8,17.0 234.8,37.0 246.0,37.0" fill="none" stroke="#FF4655" stroke-width="3.00" stroke-linecap="square" stroke-linejoin="round"></polyline><polyline points="234.8,26.6 243.6,26.6" fill="none" stroke="#FF4655" stroke-width="3.00" stroke-linecap="square" stroke-linejoin="round"></polyline><polyline points="252.2,37.0 252.2,17.0 261.0,17.0 263.8,19.4 263.8,25.0 261.0,27.4 252.2,27.4" fill="none" stroke="#FF4655" stroke-width="3.00" stroke-linecap="square" stroke-linejoin="round"></polyline><polyline points="257.8,27.4 264.2,37.0" fill="none" stroke="#FF4655" stroke-width="3.00" stroke-linecap="square" stroke-linejoin="round"></polyline><polyline points="282.0,19.4 279.6,17.0 273.2,17.0 270.8,19.2 270.8,24.6 273.0,26.6 279.4,27.4 281.6,29.4 281.6,34.8 279.2,37.0 272.8,37.0 270.4,34.6" fill="none" stroke="#FF4655" stroke-width="3.00" stroke-linecap="square" stroke-linejoin="round"></polyline></svg>