<svg xmlns="http://www.w3.org/2000/svg" width="371" height="54" viewBox="0 0 371 54"><line x1="15.0" y1="31.0" x2="20.4" y2="36.4" stroke="#FF4655" stroke-width="3" stroke-linecap="square"></line><line x1="15.0" y1="23.0" x2="20.4" y2="17.6" stroke="#FF4655" stroke-width="3" stroke-linecap="square"></line><line x1="7.0" y1="31.0" x2="1.6" y2="36.4" stroke="#FF4655" stroke-width="3" stroke-linecap="square"></line><line x1="7.0" y1="23.0" x2="1.6" y2="17.6" stroke="#FF4655" stroke-width="3" stroke-linecap="square"></line><rect x="8.7" y="24.7" width="4.7" height="4.7" fill="#FF4655" transform="rotate(45 11 27)"></rect><polyline points="48.2,17.0 37.0,17.0 37.0,37.0" fill="none" stroke="#FF4655" stroke-width="3.00" stroke-linecap="square" stroke-linejoin="round"></polyline><polyline points="37.0,26.6 45.4,26.6" fill="none" stroke="#FF4655" stroke-width="3.00" stroke-linecap="square" stroke-linejoin="round"></polyline><polyline points="54.4,37.0 61.4,17.0 68.4,37.0" fill="none" stroke="#FF4655" stroke-width="3.00" stroke-linecap="square" stroke-linejoin="round"></polyline><polyline points="57.0,30.6 65.8,30.6" fill="none" stroke="#FF4655" stroke-width="3.00" stroke-linecap="square" stroke-linejoin="round"></polyline><polyline points="86.2,19.4 83.8,17.0 77.4,17.0 75.0,19.2 75.0,24.6 77.2,26.6 83.6,27.4 85.8,29.4 85.8,34.8 83.4,37.0 77.0,37.0 74.6,34.6" fill="none" stroke="#FF4655" stroke-width="3.00" stroke-linecap="square" stroke-linejoin="round"></polyline><polyline points="92.4,17.0 104.4,17.0" fill="none" stroke="#FF4655" stroke-width="3.00" stroke-linecap="square" stroke-linejoin="round"></polyline><polyline points="98.4,17.0 98.4,37.0" fill="none" stroke="#FF4655" stroke-width="3.00" stroke-linecap="square" stroke-linejoin="round"></polyline><polyline points="121.8,17.0 110.6,17.0 110.6,37.0 121.8,37.0" fill="none" stroke="#FF4655" stroke-width="3.00" stroke-linecap="square" stroke-linejoin="round"></polyline><polyline points="110.6,26.6 119.4,26.6" fill="none" stroke="#FF4655" stroke-width="3.00" stroke-linecap="square" stroke-linejoin="round"></polyline><polyline points="128.0,37.0 128.0,17.0 136.8,17.0 139.6,19.4 139.6,25.0 136.8,27.4 128.0,27.4" fill="none" stroke="#FF4655" stroke-width="3.00" stroke-linecap="square" stroke-linejoin="round"></polyline><polyline points="133.6,27.4 140.0,37.0" fill="none" stroke="#FF4655" stroke-width="3.00" stroke-linecap="square" stroke-linejoin="round"></polyline><polyline points="161.2,17.0 173.2,17.0" fill="none" stroke="#FF4655" stroke-width="3.00" stroke-linecap="square" stroke-linejoin="round"></polyline><polyline points="167.2,17.0 167.2,37.0" fill="none" stroke="#FF4655" stroke-width="3.00" stroke-linecap="square" stroke-linejoin="round"></polyline><polyline points="179.4,17.0 179.4,37.0" fill="none" stroke="#FF4655" stroke-width="3.00" stroke-linecap="square" stroke-linejoin="round"></polyline><polyline points="191.8,17.0 191.8,37.0" fill="none" stroke="#FF4655" stroke-width="3.00" stroke-linecap="square" stroke-linejoin="round"></polyline><polyline points="179.4,26.6 191.8,26.6" fill="none" stroke="#FF4655" stroke-width="3.00" stroke-linecap="square" stroke-linejoin="round"></polyline><polyline points="198.0,37.0 205.0,17.0 212.0,37.0" fill="none" stroke="#FF4655" stroke-width="3.00" stroke-linecap="square" stroke-linejoin="round"></polyline><polyline points="200.6,30.6 209.4,30.6" fill="none" stroke="#FF4655" stroke-width="3.00" stroke-linecap="square" stroke-linejoin="round"></polyline><polyline points="218.2,37.0 218.2,17.0 231.0,37.0 231.0,17.0" fill="none" stroke="#FF4655" stroke-width="3.00" stroke-linecap="square" stroke-linejoin="round"></polyline><polyline points="252.2,17.0 258.8,37.0 265.4,17.0" fill="none" stroke="#FF4655" stroke-width="3.00" stroke-linecap="square" stroke-linejoin="round"></polyline><polyline points="271.6,37.0 278.6,17.0 285.6,37.0" fill="none" stroke="#FF4655" stroke-width="3.00" stroke-linecap="square" stroke-linejoin="round"></polyline><polyline points="274.2,30.6 283.0,30.6" fill="none" stroke="#FF4655" stroke-width="3.00" stroke-linecap="square" stroke-linejoin="round"></polyline><polyline points="291.8,37.0 291.8,17.0 304.6,37.0 304.6,17.0" fill="none" stroke="#FF4655" stroke-width="3.00" stroke-linecap="square" stroke-linejoin="round"></polyline><polyline points="312.2,17.0 312.2,37.0" fill="none" stroke="#FF4655" stroke-width="3.00" stroke-linecap="square" stroke-linejoin="round"></polyline><polyline points="319.8,17.0 319.8,37.0 330.2,37.0" fill="none" stroke="#FF4655" stroke-width="3.00" stroke-linecap="square" stroke-linejoin="round"></polyline><polyline points="336.4,17.0 336.4,37.0 346.8,37.0" fill="none" stroke="#FF4655" stroke-width="3.00" stroke-linecap="square" stroke-linejoin="round"></polyline><polyline points="353.0,37.0 360.0,17.0 367.0,37.0" fill="none" stroke="#FF4655" stroke-width="3.00" stroke-linecap="square" stroke-linejoin="round"></polyline><polyline points="355.6,30.6 364.4,30.6" fill="none" stroke="#FF4655" stroke-width="3.00" stroke-linecap="square" stroke-linejoin="round"></polyline></svg>