<svg xmlns="http://www.w3.org/2000/svg" width="331" height="54" viewBox="0 0 331 54"><line x1="15.0" y1="31.0" x2="20.4" y2="36.4" stroke="#FF4655" stroke-width="3" stroke-linecap="square"></line><line x1="15.0" y1="23.0" x2="20.4" y2="17.6" stroke="#FF4655" stroke-width="3" stroke-linecap="square"></line><line x1="7.0" y1="31.0" x2="1.6" y2="36.4" stroke="#FF4655" stroke-width="3" stroke-linecap="square"></line><line x1="7.0" y1="23.0" x2="1.6" y2="17.6" stroke="#FF4655" stroke-width="3" stroke-linecap="square"></line><rect x="8.7" y="24.7" width="4.7" height="4.7" fill="#FF4655" transform="rotate(45 11 27)"></rect><polyline points="37.0,37.0 37.0,17.0 45.4,28.2 53.8,17.0 53.8,37.0" fill="none" stroke="#FF4655" stroke-width="3.00" stroke-linecap="square" stroke-linejoin="round"></polyline><polyline points="64.0,17.0 69.6,17.0 73.6,20.2 73.6,33.8 69.6,37.0 64.0,37.0 60.0,33.8 60.0,20.2 64.0,17.0" fill="none" stroke="#FF4655" stroke-width="3.00" stroke-linecap="square" stroke-linejoin="round"></polyline><polyline points="79.8,17.0 88.2,17.0 92.6,20.6 92.6,33.4 88.2,37.0 79.8,37.0 79.8,17.0" fill="none" stroke="#FF4655" stroke-width="3.00" stroke-linecap="square" stroke-linejoin="round"></polyline><polyline points="110.0,17.0 98.8,17.0 98.8,37.0 110.0,37.0" fill="none" stroke="#FF4655" stroke-width="3.00" stroke-linecap="square" stroke-linejoin="round"></polyline><polyline points="98.8,26.6 107.6,26.6" fill="none" stroke="#FF4655" stroke-width="3.00" stroke-linecap="square" stroke-linejoin="round"></polyline><polyline points="116.2,37.0 116.2,17.0 125.0,17.0 127.8,19.4 127.8,25.0 125.0,27.4 116.2,27.4" fill="none" stroke="#FF4655" stroke-width="3.00" stroke-linecap="square" stroke-linejoin="round"></polyline><polyline points="121.8,27.4 128.2,37.0" fill="none" stroke="#FF4655" stroke-width="3.00" stroke-linecap="square" stroke-linejoin="round"></polyline><polyline points="134.4,37.0 134.4,17.0 147.2,37.0 147.2,17.0" fill="none" stroke="#FF4655" stroke-width="3.00" stroke-linecap="square" stroke-linejoin="round"></polyline><polyline points="172.4,17.0 178.0,17.0 182.0,20.2 182.0,33.8 178.0,37.0 172.4,37.0 168.4,33.8 168.4,20.2 172.4,17.0" fill="none" stroke="#FF4655" stroke-width="3.00" stroke-linecap="square" stroke-linejoin="round"></polyline><polyline points="188.2,37.0 188.2,17.0 197.0,17.0 199.8,19.4 199.8,25.0 197.0,27.4 188.2,27.4" fill="none" stroke="#FF4655" stroke-width="3.00" stroke-linecap="square" stroke-linejoin="round"></polyline><polyline points="193.8,27.4 200.2,37.0" fill="none" stroke="#FF4655" stroke-width="3.00" stroke-linecap="square" stroke-linejoin="round"></polyline><polyline points="221.4,17.0 221.4,37.0 231.8,37.0" fill="none" stroke="#FF4655" stroke-width="3.00" stroke-linecap="square" stroke-linejoin="round"></polyline><polyline points="249.2,17.0 238.0,17.0 238.0,37.0 249.2,37.0" fill="none" stroke="#FF4655" stroke-width="3.00" stroke-linecap="square" stroke-linejoin="round"></polyline><polyline points="238.0,26.6 246.8,26.6" fill="none" stroke="#FF4655" stroke-width="3.00" stroke-linecap="square" stroke-linejoin="round"></polyline><polyline points="268.6,19.6 266.0,17.0 258.4,17.0 255.4,19.8 255.4,34.2 258.4,37.0 266.0,37.0 268.6,34.4 268.6,27.0 263.4,27.0" fill="none" stroke="#FF4655" stroke-width="3.00" stroke-linecap="square" stroke-linejoin="round"></polyline><polyline points="274.8,37.0 281.8,17.0 288.8,37.0" fill="none" stroke="#FF4655" stroke-width="3.00" stroke-linecap="square" stroke-linejoin="round"></polyline><polyline points="277.4,30.6 286.2,30.6" fill="none" stroke="#FF4655" stroke-width="3.00" stroke-linecap="square" stroke-linejoin="round"></polyline><polyline points="307.8,19.6 305.2,17.0 298.0,17.0 295.0,19.8 295.0,34.2 298.0,37.0 305.2,37.0 307.8,34.4" fill="none" stroke="#FF4655" stroke-width="3.00" stroke-linecap="square" stroke-linejoin="round"></polyline><polyline points="314.0,17.0 320.2,26.2 326.4,17.0" fill="none" stroke="#FF4655" stroke-width="3.00" stroke-linecap="square" stroke-linejoin="round"></polyline><polyline points="320.2,26.2 320.2,37.0" fill="none" stroke="#FF4655" stroke-width="3.00" stroke-linecap="square" stroke-linejoin="round"></polyline></svg>