<svg xmlns="http://www.w3.org/2000/svg" width="860" height="120" viewBox="0 0 860 120"><path d="M13.5,1.5 H858.5 V106.5 L846.5,118.5 H1.5 V13.5 Z" fill="#0C0E12" stroke="#2A2F38" stroke-width="2"></path><line x1="71.66666666666667" y1="1.5" x2="71.66666666666667" y2="7.5" stroke="#333944" stroke-width="1.5"></line><line x1="71.66666666666667" y1="118.5" x2="71.66666666666667" y2="112.5" stroke="#333944" stroke-width="1.5"></line><line x1="143.33333333333334" y1="1.5" x2="143.33333333333334" y2="7.5" stroke="#333944" stroke-width="1.5"></line><line x1="143.33333333333334" y1="118.5" x2="143.33333333333334" y2="112.5" stroke="#333944" stroke-width="1.5"></line><line x1="215" y1="1.5" x2="215" y2="7.5" stroke="#333944" stroke-width="1.5"></line><line x1="215" y1="118.5" x2="215" y2="112.5" stroke="#333944" stroke-width="1.5"></line><line x1="286.6666666666667" y1="1.5" x2="286.6666666666667" y2="7.5" stroke="#333944" stroke-width="1.5"></line><line x1="286.6666666666667" y1="118.5" x2="286.6666666666667" y2="112.5" stroke="#333944" stroke-width="1.5"></line><line x1="358.33333333333337" y1="1.5" x2="358.33333333333337" y2="7.5" stroke="#333944" stroke-width="1.5"></line><line x1="358.33333333333337" y1="118.5" x2="358.33333333333337" y2="112.5" stroke="#333944" stroke-width="1.5"></line><line x1="430" y1="1.5" x2="430" y2="7.5" stroke="#333944" stroke-width="1.5"></line><line x1="430" y1="118.5" x2="430" y2="112.5" stroke="#333944" stroke-width="1.5"></line><line x1="501.6666666666667" y1="1.5" x2="501.6666666666667" y2="7.5" stroke="#333944" stroke-width="1.5"></line><line x1="501.6666666666667" y1="118.5" x2="501.6666666666667" y2="112.5" stroke="#333944" stroke-width="1.5"></line><line x1="573.3333333333334" y1="1.5" x2="573.3333333333334" y2="7.5" stroke="#333944" stroke-width="1.5"></line><line x1="573.3333333333334" y1="118.5" x2="573.3333333333334" y2="112.5" stroke="#333944" stroke-width="1.5"></line><line x1="645" y1="1.5" x2="645" y2="7.5" stroke="#333944" stroke-width="1.5"></line><line x1="645" y1="118.5" x2="645" y2="112.5" stroke="#333944" stroke-width="1.5"></line><line x1="716.6666666666667" y1="1.5" x2="716.6666666666667" y2="7.5" stroke="#333944" stroke-width="1.5"></line><line x1="716.6666666666667" y1="118.5" x2="716.6666666666667" y2="112.5" stroke="#333944" stroke-width="1.5"></line><line x1="788.3333333333334" y1="1.5" x2="788.3333333333334" y2="7.5" stroke="#333944" stroke-width="1.5"></line><line x1="788.3333333333334" y1="118.5" x2="788.3333333333334" y2="112.5" stroke="#333944" stroke-width="1.5"></line><line x1="65.8" y1="66.8" x2="75.0" y2="76.0" stroke="#FF4655" stroke-width="4.5" stroke-linecap="square"></line><line x1="65.8" y1="53.2" x2="75.0" y2="44.0" stroke="#FF4655" stroke-width="4.5" stroke-linecap="square"></line><line x1="52.2" y1="66.8" x2="43.0" y2="76.0" stroke="#FF4655" stroke-width="4.5" stroke-linecap="square"></line><line x1="52.2" y1="53.2" x2="43.0" y2="44.0" stroke="#FF4655" stroke-width="4.5" stroke-linecap="square"></line><rect x="55.5" y="56.5" width="7.0" height="7.0" fill="#FF4655" transform="rotate(45 59 60)"></rect><polygon points="96.0,82.0 115.7,38.0 123.3,38.0 123.3,68.4 135.5,38.0 144.0,38.0 144.0,82.0 135.5,82.0 135.5,59.2 126.3,82.0 114.8,82.0 114.8,59.0 104.5,82.0" fill="#EDEAE4"></polygon><polygon points="151.0,38.0 174.8,38.0 172.1,46.8 160.2,46.8 160.2,55.6 171.2,55.6 168.6,64.4 160.2,64.4 160.2,73.2 174.8,73.2 174.8,82.0 151.0,82.0" fill="#EDEAE4"></polygon><polygon points="181.8,82.0 181.8,38.0 191.0,38.0 201.6,62.6 201.6,38.0 210.8,38.0 210.8,82.0 201.6,82.0 191.0,57.4 191.0,82.0" fill="#EDEAE4"></polygon><polygon points="217.9,38.0 243.4,38.0 240.8,46.8 235.0,46.8 235.0,82.0 226.2,82.0 226.2,46.8 217.9,46.8" fill="#EDEAE4"></polygon><polygon points="246.0,82.0 256.6,38.0 264.5,38.0 275.1,82.0 265.8,82.0 260.6,57.4 255.3,82.0" fill="#EDEAE4"></polygon><polygon points="282.1,38.0 291.4,38.0 291.4,73.2 304.1,73.2 304.1,78.5 300.6,82.0 282.1,82.0" fill="#EDEAE4"></polygon><line x1="641.8" y1="61.2" x2="693.8" y2="61.2" stroke="#333944" stroke-width="1.5"></line><polyline points="717.8,67.5 717.8,52.5 724.4,52.5 726.5,54.3 726.5,58.5 724.4,60.3 717.8,60.3" fill="none" stroke="#FF4655" stroke-width="2.25" stroke-linecap="square" stroke-linejoin="round"></polyline><polyline points="722.0,60.3 726.8,67.5" fill="none" stroke="#FF4655" stroke-width="2.25" stroke-linecap="square" stroke-linejoin="round"></polyline><polyline points="741.7,52.5 733.3,52.5 733.3,67.5 741.7,67.5" fill="none" stroke="#FF4655" stroke-width="2.25" stroke-linecap="square" stroke-linejoin="round"></polyline><polyline points="733.3,59.7 739.9,59.7" fill="none" stroke="#FF4655" stroke-width="2.25" stroke-linecap="square" stroke-linejoin="round"></polyline><polyline points="748.2,52.5 748.2,67.5 756.0,67.5" fill="none" stroke="#FF4655" stroke-width="2.25" stroke-linecap="square" stroke-linejoin="round"></polyline><polyline points="770.9,52.5 762.5,52.5 762.5,67.5 770.9,67.5" fill="none" stroke="#FF4655" stroke-width="2.25" stroke-linecap="square" stroke-linejoin="round"></polyline><polyline points="762.5,59.7 769.1,59.7" fill="none" stroke="#FF4655" stroke-width="2.25" stroke-linecap="square" stroke-linejoin="round"></polyline><polyline points="777.4,67.5 782.6,52.5 787.9,67.5" fill="none" stroke="#FF4655" stroke-width="2.25" stroke-linecap="square" stroke-linejoin="round"></polyline><polyline points="779.3,62.7 785.9,62.7" fill="none" stroke="#FF4655" stroke-width="2.25" stroke-linecap="square" stroke-linejoin="round"></polyline><polyline points="803.1,54.3 801.3,52.5 796.5,52.5 794.7,54.1 794.7,58.2 796.3,59.7 801.1,60.3 802.8,61.8 802.8,65.8 801.0,67.5 796.2,67.5 794.4,65.7" fill="none" stroke="#FF4655" stroke-width="2.25" stroke-linecap="square" stroke-linejoin="round"></polyline><polyline points="818.0,52.5 809.6,52.5 809.6,67.5 818.0,67.5" fill="none" stroke="#FF4655" stroke-width="2.25" stroke-linecap="square" stroke-linejoin="round"></polyline><polyline points="809.6,59.7 816.2,59.7" fill="none" stroke="#FF4655" stroke-width="2.25" stroke-linecap="square" stroke-linejoin="round"></polyline></svg>