<svg xmlns="http://www.w3.org/2000/svg" width="135" height="42" viewBox="0 0 135 42"><line x1="12.2" y1="24.2" x2="16.5" y2="28.5" stroke="#FF4655" stroke-width="2.5" stroke-linecap="square"></line><line x1="12.2" y1="17.8" x2="16.5" y2="13.5" stroke="#FF4655" stroke-width="2.5" stroke-linecap="square"></line><line x1="5.8" y1="24.2" x2="1.5" y2="28.5" stroke="#FF4655" stroke-width="2.5" stroke-linecap="square"></line><line x1="5.8" y1="17.8" x2="1.5" y2="13.5" stroke="#FF4655" stroke-width="2.5" stroke-linecap="square"></line><rect x="7.0" y="19.1" width="3.9" height="3.9" fill="#FF4655" transform="rotate(45 9 21)"></rect><polyline points="40.2,15.1 38.2,13.0 32.4,13.0 30.0,15.2 30.0,26.8 32.4,29.0 38.2,29.0 40.2,26.9" fill="none" stroke="#FF4655" stroke-width="2.40" stroke-linecap="square" stroke-linejoin="round"></polyline><polyline points="45.2,13.0 45.2,29.0" fill="none" stroke="#FF4655" stroke-width="2.40" stroke-linecap="square" stroke-linejoin="round"></polyline><polyline points="55.2,13.0 55.2,29.0" fill="none" stroke="#FF4655" stroke-width="2.40" stroke-linecap="square" stroke-linejoin="round"></polyline><polyline points="45.2,20.7 55.2,20.7" fill="none" stroke="#FF4655" stroke-width="2.40" stroke-linecap="square" stroke-linejoin="round"></polyline><polyline points="60.2,29.0 65.8,13.0 71.4,29.0" fill="none" stroke="#FF4655" stroke-width="2.40" stroke-linecap="square" stroke-linejoin="round"></polyline><polyline points="62.2,23.9 69.3,23.9" fill="none" stroke="#FF4655" stroke-width="2.40" stroke-linecap="square" stroke-linejoin="round"></polyline><polyline points="76.4,29.0 76.4,13.0 86.6,29.0 86.6,13.0" fill="none" stroke="#FF4655" stroke-width="2.40" stroke-linecap="square" stroke-linejoin="round"></polyline><polyline points="102.2,15.1 100.1,13.0 94.0,13.0 91.6,15.2 91.6,26.8 94.0,29.0 100.1,29.0 102.2,26.9 102.2,21.0 98.0,21.0" fill="none" stroke="#FF4655" stroke-width="2.40" stroke-linecap="square" stroke-linejoin="round"></polyline><polyline points="116.1,13.0 107.2,13.0 107.2,29.0 116.1,29.0" fill="none" stroke="#FF4655" stroke-width="2.40" stroke-linecap="square" stroke-linejoin="round"></polyline><polyline points="107.2,20.7 114.2,20.7" fill="none" stroke="#FF4655" stroke-width="2.40" stroke-linecap="square" stroke-linejoin="round"></polyline><polyline points="130.4,14.9 128.5,13.0 123.4,13.0 121.4,14.8 121.4,19.1 123.2,20.7 128.3,21.3 130.1,22.9 130.1,27.2 128.2,29.0 123.0,29.0 121.1,27.1" fill="none" stroke="#FF4655" stroke-width="2.40" stroke-linecap="square" stroke-linejoin="round"></polyline></svg>