<svg xmlns="http://www.w3.org/2000/svg" width="94" height="42" viewBox="0 0 94 42"><line x1="12.2" y1="24.2" x2="16.5" y2="28.5" stroke="#FF4655" stroke-width="2.5" stroke-linecap="square"></line><line x1="12.2" y1="17.8" x2="16.5" y2="13.5" stroke="#FF4655" stroke-width="2.5" stroke-linecap="square"></line><line x1="5.8" y1="24.2" x2="1.5" y2="28.5" stroke="#FF4655" stroke-width="2.5" stroke-linecap="square"></line><line x1="5.8" y1="17.8" x2="1.5" y2="13.5" stroke="#FF4655" stroke-width="2.5" stroke-linecap="square"></line><rect x="7.0" y="19.1" width="3.9" height="3.9" fill="#FF4655" transform="rotate(45 9 21)"></rect><polyline points="39.0,13.0 30.0,13.0 30.0,29.0" fill="none" stroke="#FF4655" stroke-width="2.40" stroke-linecap="square" stroke-linejoin="round"></polyline><polyline points="30.0,20.7 36.7,20.7" fill="none" stroke="#FF4655" stroke-width="2.40" stroke-linecap="square" stroke-linejoin="round"></polyline><polyline points="45.1,13.0 45.1,29.0" fill="none" stroke="#FF4655" stroke-width="2.40" stroke-linecap="square" stroke-linejoin="round"></polyline><polyline points="51.2,13.0 61.1,29.0" fill="none" stroke="#FF4655" stroke-width="2.40" stroke-linecap="square" stroke-linejoin="round"></polyline><polyline points="61.1,13.0 51.2,29.0" fill="none" stroke="#FF4655" stroke-width="2.40" stroke-linecap="square" stroke-linejoin="round"></polyline><polyline points="75.1,13.0 66.1,13.0 66.1,29.0 75.1,29.0" fill="none" stroke="#FF4655" stroke-width="2.40" stroke-linecap="square" stroke-linejoin="round"></polyline><polyline points="66.1,20.7 73.2,20.7" fill="none" stroke="#FF4655" stroke-width="2.40" stroke-linecap="square" stroke-linejoin="round"></polyline><polyline points="89.4,14.9 87.4,13.0 82.3,13.0 80.4,14.8 80.4,19.1 82.2,20.7 87.3,21.3 89.0,22.9 89.0,27.2 87.1,29.0 82.0,29.0 80.1,27.1" fill="none" stroke="#FF4655" stroke-width="2.40" stroke-linecap="square" stroke-linejoin="round"></polyline></svg>